<?xml version="1.0" encoding="utf-8"?>
<svg width="22px" height="22px" viewBox="0 0 22 22" version="1.1" xmlns:xlink="http://www.w3.org/1999/xlink" xmlns="http://www.w3.org/2000/svg">
  <defs>
    <path d="M11 6L11 2C11 1.44772 11.4477 1 12 1C12.5523 1 13 1.44772 13 2L13 6C13 6.55228 12.5523 7 12 7C11.4477 7 11 6.55228 11 6ZM7.05289 8.46711L4.22289 5.63711C3.83237 5.24658 3.83237 4.61342 4.22289 4.22289C4.61342 3.83237 5.24658 3.83237 5.63711 4.22289L8.46711 7.05289C8.85763 7.44342 8.85763 8.07658 8.46711 8.46711C8.07658 8.85763 7.44342 8.85763 7.05289 8.46711ZM19.7771 5.63711L16.9471 8.46711C16.5566 8.85763 15.9234 8.85763 15.5329 8.46711C15.1424 8.07658 15.1424 7.44342 15.5329 7.05289L18.3629 4.22289C18.7534 3.83237 19.3866 3.83237 19.7771 4.22289C20.1676 4.61342 20.1676 5.24658 19.7771 5.63711ZM6 13L2 13C1.44772 13 1 12.5523 1 12C1 11.4477 1.44772 11 2 11L6 11C6.55228 11 7 11.4477 7 12C7 12.5523 6.55228 13 6 13ZM22 13L18 13C17.4477 13 17 12.5523 17 12C17 11.4477 17.4477 11 18 11L22 11C22.5523 11 23 11.4477 23 12C23 12.5523 22.5523 13 22 13ZM8.46711 16.9471L5.63711 19.7771C5.24658 20.1676 4.61342 20.1676 4.22289 19.7771C3.83237 19.3866 3.83237 18.7534 4.22289 18.3629L7.05289 15.5329C7.44342 15.1424 8.07658 15.1424 8.46711 15.5329C8.85763 15.9234 8.85763 16.5566 8.46711 16.9471ZM18.3629 19.7771L15.5329 16.9471C15.1424 16.5566 15.1424 15.9234 15.5329 15.5329C15.9234 15.1424 16.5566 15.1424 16.9471 15.5329L19.7771 18.3629C20.1676 18.7534 20.1676 19.3866 19.7771 19.7771C19.3866 20.1676 18.7534 20.1676 18.3629 19.7771ZM11 22L11 18C11 17.4477 11.4477 17 12 17C12.5523 17 13 17.4477 13 18L13 22C13 22.5523 12.5523 23 12 23C11.4477 23 11 22.5523 11 22Z" id="path_1" />
    <clipPath id="mask_1">
      <use xlink:href="#path_1" />
    </clipPath>
  </defs>
  <path d="M11 6L11 2C11 1.44772 11.4477 1 12 1C12.5523 1 13 1.44772 13 2L13 6C13 6.55228 12.5523 7 12 7C11.4477 7 11 6.55228 11 6ZM7.05289 8.46711L4.22289 5.63711C3.83237 5.24658 3.83237 4.61342 4.22289 4.22289C4.61342 3.83237 5.24658 3.83237 5.63711 4.22289L8.46711 7.05289C8.85763 7.44342 8.85763 8.07658 8.46711 8.46711C8.07658 8.85763 7.44342 8.85763 7.05289 8.46711ZM19.7771 5.63711L16.9471 8.46711C16.5566 8.85763 15.9234 8.85763 15.5329 8.46711C15.1424 8.07658 15.1424 7.44342 15.5329 7.05289L18.3629 4.22289C18.7534 3.83237 19.3866 3.83237 19.7771 4.22289C20.1676 4.61342 20.1676 5.24658 19.7771 5.63711ZM6 13L2 13C1.44772 13 1 12.5523 1 12C1 11.4477 1.44772 11 2 11L6 11C6.55228 11 7 11.4477 7 12C7 12.5523 6.55228 13 6 13ZM22 13L18 13C17.4477 13 17 12.5523 17 12C17 11.4477 17.4477 11 18 11L22 11C22.5523 11 23 11.4477 23 12C23 12.5523 22.5523 13 22 13ZM8.46711 16.9471L5.63711 19.7771C5.24658 20.1676 4.61342 20.1676 4.22289 19.7771C3.83237 19.3866 3.83237 18.7534 4.22289 18.3629L7.05289 15.5329C7.44342 15.1424 8.07658 15.1424 8.46711 15.5329C8.85763 15.9234 8.85763 16.5566 8.46711 16.9471ZM18.3629 19.7771L15.5329 16.9471C15.1424 16.5566 15.1424 15.9234 15.5329 15.5329C15.9234 15.1424 16.5566 15.1424 16.9471 15.5329L19.7771 18.3629C20.1676 18.7534 20.1676 19.3866 19.7771 19.7771C19.3866 20.1676 18.7534 20.1676 18.3629 19.7771ZM11 22L11 18C11 17.4477 11.4477 17 12 17C12.5523 17 13 17.4477 13 18L13 22C13 22.5523 12.5523 23 12 23C11.4477 23 11 22.5523 11 22Z" id="Combined-Shape" fill="#107CC0" fill-rule="evenodd" stroke="none" />
</svg>