<?xml version="1.0" encoding="utf-8"?>
<svg width="113px" height="38px" viewBox="0 0 113 38" version="1.1" xmlns:xlink="http://www.w3.org/1999/xlink" xmlns="http://www.w3.org/2000/svg">
  <g id="Google-play">
    <path d="M5.50478 1.28902C3.18701 1.28902 1.30029 3.15874 1.30029 5.45705L1.30029 31.4424C1.30029 33.7407 3.18701 35.6104 5.50478 35.6104L105.612 35.6104C107.93 35.6104 109.815 33.7407 109.815 31.4424L109.815 5.45705C109.815 3.15874 107.93 1.28902 105.612 1.28902L5.50478 1.28902ZM105.612 36.8994L5.50478 36.8994C2.46925 36.8994 0 34.4516 0 31.4424L0 5.45706C0 2.44784 2.46925 0 5.50478 0L105.612 0C108.647 0 111.116 2.44784 111.116 5.45706L111.116 31.4424C111.116 34.4516 108.647 36.8994 105.612 36.8994L105.612 36.8994Z" transform="translate(0.6856629 0.00019335261)" id="Fill-6" fill="#FFFFFF" fill-rule="evenodd" stroke="none" />
    <path d="M1.85877 1.68475C1.59611 0.898445 1.46478 0.473069 1.46478 0.409263L1.42772 0.409263C1.42772 0.468558 1.29184 0.893934 1.01943 1.68475L1.85877 1.68475ZM2.92501 2.97634L2.18644 2.97634C2.18644 2.87644 2.11622 2.59092 1.97709 2.12172L0.910854 2.12172C0.766522 2.58384 0.694356 2.86871 0.694356 2.97634L0 2.97634C0 2.91705 0.17944 2.4298 0.538971 1.51331C0.897201 0.59746 1.07729 0.0928092 1.07729 0L1.94914 0C1.94914 0.0870087 2.11167 0.583925 2.43675 1.49204C2.76182 2.39951 2.92501 2.89449 2.92501 2.97634L2.92501 2.97634Z" transform="translate(34.685947 7.7939143)" id="Fill-8" fill="#FFFFFF" fill-rule="evenodd" stroke="none" />
    <path d="M2.47511 2.97699L1.90493 2.97699C1.90493 2.91447 1.69363 2.58448 1.27038 1.98702C0.828286 1.35734 0.576029 0.926803 0.514265 0.695425L0.477857 0.695425C0.515566 1.02928 0.53507 1.33091 0.53507 1.60096C0.53507 1.97735 0.545472 2.43624 0.566927 2.97699L0 2.97699C0.0234052 2.50456 0.0344577 1.98573 0.0344577 1.41985C0.0344577 0.863642 0.0234052 0.390572 0 0L0.685254 0C0.685254 0.0812081 0.875096 0.403462 1.25478 0.967407C1.65917 1.5668 1.89127 1.97284 1.95109 2.18617L1.98555 2.18617C1.94849 1.84652 1.93028 1.54102 1.93028 1.27162C1.93028 0.858485 1.91988 0.434399 1.89778 0L2.47511 0C2.453 0.378327 2.4426 0.851396 2.4426 1.41985C2.4426 1.99347 2.453 2.51229 2.47511 2.97699" transform="translate(38.10955 7.7935276)" id="Fill-10" fill="#FFFFFF" fill-rule="evenodd" stroke="none" />
    <path d="M1.90753 1.49784C1.90753 1.20523 1.82106 0.959029 1.64942 0.758587C1.47713 0.558145 1.21447 0.457601 0.860793 0.457601C0.794478 0.457601 0.703458 0.464046 0.588382 0.478225C0.603335 0.783078 0.611137 1.10147 0.611137 1.43403C0.611137 1.79818 0.618939 2.15975 0.634542 2.51745C0.734015 2.53743 0.834787 2.5471 0.93426 2.5471C1.26518 2.5471 1.50964 2.44591 1.66892 2.24225C1.82821 2.03858 1.90753 1.79045 1.90753 1.49784M2.53752 1.39987C2.53752 1.83298 2.39709 2.21002 2.11752 2.53356C1.83796 2.85646 1.44527 3.01823 0.941411 3.01823C0.71321 3.01823 0.39984 3.00921 0 2.99052C0.0201545 2.53099 0.0299067 2.01151 0.0299067 1.43403C0.0299067 0.87911 0.0201545 0.40604 0 0.0141792L0.403741 0.0141792C0.470055 0.0141792 0.568227 0.0116012 0.699557 0.0070896C0.829586 0.00257803 0.915405 0 0.955064 0C1.51029 0 1.91273 0.13728 2.16238 0.411841C2.41204 0.686402 2.53752 1.0151 2.53752 1.39987" transform="translate(41.390118 7.779735)" id="Fill-12" fill="#FFFFFF" fill-rule="evenodd" stroke="none" />
    <path d="M1.56555 0.886844C1.56555 0.583925 1.36856 0.431821 0.975219 0.431821C0.830886 0.431821 0.703458 0.442777 0.592283 0.464046C0.609187 0.699936 0.617638 1.00801 0.617638 1.38763C0.702157 1.39085 0.773673 1.39214 0.832187 1.39214C1.3211 1.39214 1.56555 1.22392 1.56555 0.886844M2.43024 2.99052L1.74759 2.99052C1.56945 2.45107 1.43292 2.11786 1.33735 1.99089C1.24178 1.86521 1.08834 1.8014 0.875746 1.8014C0.787327 1.8014 0.701507 1.80205 0.620239 1.80398C0.620239 2.19584 0.627391 2.59092 0.641044 2.99052L0 2.99052C0.0195044 2.53034 0.0299067 2.01087 0.0299067 1.43339C0.0299067 0.878465 0.0195044 0.405396 0 0.0135347L0.398539 0.0135347C0.4447 0.0135347 0.541571 0.0116012 0.687854 0.00644509C0.834787 0.00193353 0.970668 0 1.09485 0C1.8009 0 2.15393 0.239113 2.15393 0.717983C2.15393 1.0976 1.95239 1.36185 1.54995 1.51137L1.54995 1.54553C1.70468 1.58807 1.84121 1.70795 1.95824 1.90581C2.07462 2.10303 2.23195 2.4646 2.43024 2.99052" transform="translate(44.579018 7.7801867)" id="Fill-14" fill="#FFFFFF" fill-rule="evenodd" stroke="none" />
    <path d="M2.29957 1.56873C2.29957 1.25035 2.217 0.991899 2.05251 0.79339C1.88802 0.595526 1.68518 0.496272 1.44397 0.496272C1.21967 0.496272 1.02918 0.59617 0.872496 0.795968C0.71451 0.995766 0.636493 1.24777 0.636493 1.55262C0.636493 1.86972 0.719061 2.12752 0.884198 2.32668C1.04999 2.52518 1.25283 2.62508 1.49273 2.62508C1.71704 2.62508 1.90753 2.52454 2.06486 2.3241C2.22155 2.12366 2.29957 1.8723 2.29957 1.56873M2.93606 1.50235C2.93606 1.97026 2.79173 2.35826 2.50241 2.66633C2.2131 2.97441 1.85552 3.1278 1.43032 3.1278C1.02398 3.1278 0.684603 2.98665 0.410892 2.70371C0.137181 2.42142 0 2.06178 0 1.6261C0 1.15818 0.144983 0.770188 0.433647 0.462113C0.722962 0.154038 1.08054 0 1.50574 0C1.91208 0 2.2521 0.141147 2.52582 0.423442C2.79953 0.705092 2.93606 1.06473 2.93606 1.50235" transform="translate(47.379524 7.7248874)" id="Fill-16" fill="#FFFFFF" fill-rule="evenodd" stroke="none" />
    <path d="M0.652746 2.97699L0 2.97699C0.0195044 2.50456 0.0299067 1.98573 0.0299067 1.41985C0.0299067 0.863642 0.0195044 0.390572 0 0L0.652746 0C0.632592 0.384772 0.62219 0.857841 0.62219 1.41985C0.62219 1.99475 0.632592 2.51358 0.652746 2.97699" transform="translate(50.96722 7.7935276)" id="Fill-18" fill="#FFFFFF" fill-rule="evenodd" stroke="none" />
    <path d="M1.90753 1.49784C1.90753 1.20523 1.82106 0.959029 1.64942 0.758587C1.47713 0.558145 1.21447 0.457601 0.860793 0.457601C0.794478 0.457601 0.703458 0.464046 0.588382 0.478225C0.603335 0.783078 0.611787 1.10147 0.611787 1.43403C0.611787 1.79818 0.619589 2.15975 0.634542 2.51745C0.734015 2.53743 0.834787 2.5471 0.93426 2.5471C1.26518 2.5471 1.51029 2.44591 1.66892 2.24225C1.82821 2.03858 1.90753 1.79045 1.90753 1.49784M2.53752 1.39987C2.53752 1.83298 2.39709 2.21002 2.11752 2.53356C1.83796 2.85646 1.44527 3.01823 0.941411 3.01823C0.71386 3.01823 0.40049 3.00921 0 2.99052C0.0201545 2.53099 0.0299067 2.01151 0.0299067 1.43403C0.0299067 0.87911 0.0201545 0.40604 0 0.0141792L0.403741 0.0141792C0.470055 0.0141792 0.568227 0.0116012 0.699557 0.0070896C0.829586 0.00257803 0.915405 0 0.955064 0C1.51029 0 1.91273 0.13728 2.16303 0.411841C2.41204 0.686402 2.53752 1.0151 2.53752 1.39987" transform="translate(52.425434 7.779735)" id="Fill-20" fill="#FFFFFF" fill-rule="evenodd" stroke="none" />
    <path d="M1.85877 1.68475C1.59546 0.898445 1.46413 0.473069 1.46413 0.409263L1.42707 0.409263C1.42707 0.468558 1.29119 0.893934 1.01878 1.68475L1.85877 1.68475ZM2.92436 2.97634L2.18579 2.97634C2.18579 2.87644 2.11622 2.59092 1.97579 2.12172L0.910204 2.12172C0.765872 2.58384 0.693706 2.86871 0.693706 2.97634L0 2.97634C0 2.91705 0.17879 2.4298 0.538321 1.51331C0.897201 0.59746 1.07664 0.0928092 1.07664 0L1.94849 0C1.94849 0.0870087 2.11102 0.583925 2.4361 1.49204C2.76182 2.39951 2.92436 2.89449 2.92436 2.97634L2.92436 2.97634Z" transform="translate(56.47344 7.7939143)" id="Fill-22" fill="#FFFFFF" fill-rule="evenodd" stroke="none" />
    <path d="M1.59611 0.919069C1.59611 0.592948 1.37766 0.429887 0.940761 0.429887C0.831536 0.429887 0.716461 0.441488 0.594883 0.464046C0.611787 0.752142 0.620239 1.07826 0.620239 1.44241C0.659248 1.44563 0.703458 1.44692 0.754169 1.44692C1.31524 1.44692 1.59611 1.27097 1.59611 0.919069M2.19099 0.79339C2.19099 1.15754 2.05446 1.42694 1.7814 1.60031C1.50834 1.77433 1.17416 1.8607 0.776924 1.8607C0.704758 1.8607 0.654047 1.85941 0.62284 1.85683C0.62284 2.14299 0.631292 2.52132 0.648195 2.99052L0 2.99052C0.0201545 2.55032 0.0299067 2.03149 0.0299067 1.43339C0.0299067 0.88491 0.0201545 0.411197 0 0.0135347L0.40114 0.0135347C0.458353 0.0135347 0.567577 0.0116012 0.728813 0.00644509C0.89005 0.00257803 1.03048 0 1.14881 0C1.44072 0 1.68778 0.0657399 1.88867 0.196575C2.09087 0.328055 2.19099 0.526564 2.19099 0.79339" transform="translate(59.896713 7.7800574)" id="Fill-24" fill="#FFFFFF" fill-rule="evenodd" stroke="none" />
    <path d="M1.59611 0.919069C1.59611 0.592948 1.37766 0.429887 0.940761 0.429887C0.831536 0.429887 0.71581 0.441488 0.594883 0.464046C0.611787 0.752142 0.620239 1.07826 0.620239 1.44241C0.659248 1.44563 0.703458 1.44692 0.754169 1.44692C1.31524 1.44692 1.59611 1.27097 1.59611 0.919069M2.19099 0.79339C2.19099 1.15754 2.05446 1.42694 1.7814 1.60031C1.50834 1.77433 1.17416 1.8607 0.776924 1.8607C0.704758 1.8607 0.653396 1.85941 0.62284 1.85683C0.62284 2.14299 0.631292 2.52132 0.648195 2.99052L0 2.99052C0.0195044 2.55032 0.0299067 2.03149 0.0299067 1.43339C0.0299067 0.88491 0.0195044 0.411197 0 0.0135347L0.40114 0.0135347C0.458353 0.0135347 0.567577 0.0116012 0.728813 0.00644509C0.89005 0.00257803 1.02983 0 1.14881 0C1.44072 0 1.68778 0.0657399 1.88867 0.196575C2.09022 0.328055 2.19099 0.526564 2.19099 0.79339" transform="translate(62.662952 7.7800574)" id="Fill-26" fill="#FFFFFF" fill-rule="evenodd" stroke="none" />
    <path d="M2.29957 1.56873C2.29957 1.25035 2.217 0.991899 2.05251 0.79339C1.88802 0.595526 1.68518 0.496272 1.44397 0.496272C1.21902 0.496272 1.02853 0.59617 0.871845 0.795968C0.71451 0.995766 0.635843 1.24777 0.635843 1.55262C0.635843 1.86972 0.719061 2.12752 0.884198 2.32668C1.04934 2.52518 1.25218 2.62508 1.49208 2.62508C1.71703 2.62508 1.90688 2.52454 2.06421 2.3241C2.2209 2.12366 2.29957 1.8723 2.29957 1.56873M2.93606 1.50235C2.93606 1.97026 2.79173 2.35826 2.50241 2.66633C2.2131 2.97441 1.85552 3.1278 1.42967 3.1278C1.02398 3.1278 0.683953 2.98665 0.410242 2.70371C0.136531 2.42142 0 2.06178 0 1.6261C0 1.15818 0.144332 0.770188 0.433647 0.462113C0.722312 0.154038 1.07989 0 1.50574 0C1.91143 0 2.2521 0.141147 2.52517 0.423442C2.79953 0.705092 2.93606 1.06473 2.93606 1.50235" transform="translate(66.44069 7.7248874)" id="Fill-28" fill="#FFFFFF" fill-rule="evenodd" stroke="none" />
    <path d="M2.47511 2.97699L1.90558 2.97699C1.90558 2.91447 1.69428 2.58448 1.27103 1.98702C0.828286 1.35734 0.576029 0.926803 0.514265 0.695425L0.477857 0.695425C0.516216 1.02928 0.53572 1.33091 0.53572 1.60096C0.53572 1.97735 0.546122 2.43624 0.567577 2.97699L0 2.97699C0.0234052 2.50456 0.0351079 1.98573 0.0351079 1.41985C0.0351079 0.863642 0.0234052 0.390572 0 0L0.685254 0C0.685254 0.0812081 0.875096 0.403462 1.25478 0.967407C1.65917 1.5668 1.89192 1.97284 1.95109 2.18617L1.9862 2.18617C1.94914 1.84652 1.93093 1.54102 1.93093 1.27162C1.93093 0.858485 1.91988 0.434399 1.89843 0L2.47511 0C2.45365 0.378327 2.4426 0.851396 2.4426 1.41985C2.4426 1.99347 2.45365 2.51229 2.47511 2.97699" transform="translate(70.02761 7.7935276)" id="Fill-30" fill="#FFFFFF" fill-rule="evenodd" stroke="none" />
    <path d="M10.7905 5.95397C10.7905 7.43119 10.3484 8.6087 9.46417 9.48523C8.46035 10.5293 7.15355 11.0514 5.54444 11.0514C4.00425 11.0514 2.69485 10.5222 1.61756 9.46268C0.538321 8.40439 0 7.09153 0 5.52537C0 3.95922 0.538321 2.647 1.61756 1.58807C2.69485 0.529142 4.00425 0 5.54444 0C6.30901 0 7.03913 0.146948 7.73543 0.442777C8.43044 0.737962 8.98761 1.13305 9.40436 1.62481L8.46555 2.55612C7.76014 1.7189 6.78622 1.29933 5.54444 1.29933C4.42099 1.29933 3.45032 1.69119 2.63049 2.47491C1.81066 3.25735 1.40106 4.27503 1.40106 5.52537C1.40106 6.77636 1.81066 7.7934 2.63049 8.57648C3.45032 9.35956 4.42099 9.75142 5.54444 9.75142C6.73681 9.75142 7.73023 9.35698 8.52536 8.56939C9.04223 8.057 9.33999 7.34224 9.41931 6.4264L5.54444 6.4264L5.54444 5.15607L10.7164 5.15607C10.7658 5.43192 10.7905 5.6981 10.7905 5.95397" transform="translate(34.503906 14.354175)" id="Fill-32" fill="#FFFFFF" fill-rule="evenodd" stroke="none" />
    <path d="M2.07917 5.75482C2.55117 6.2324 3.10965 6.47151 3.75589 6.47151C4.40149 6.47151 4.96061 6.2324 5.43262 5.75482C5.90462 5.27724 6.14063 4.64433 6.14063 3.85674C6.14063 3.06851 5.90462 2.43624 5.43262 1.95737C4.96061 1.47979 4.40149 1.24132 3.75589 1.24132C3.10965 1.24132 2.55117 1.47979 2.07917 1.95737C1.60651 2.43624 1.37116 3.06851 1.37116 3.85674C1.37116 4.64433 1.60651 5.27724 2.07917 5.75482M1.05844 1.10082C1.76385 0.36737 2.66235 0 3.75589 0C4.84879 0 5.74794 0.36737 6.454 1.10082C7.15876 1.83492 7.51113 2.75334 7.51113 3.85674C7.51113 4.96014 7.15876 5.87792 6.454 6.61201C5.74794 7.34611 4.84879 7.71284 3.75589 7.71284C2.66235 7.71284 1.76385 7.34611 1.05844 6.61201C0.353029 5.87792 0 4.96014 0 3.85674C0 2.75334 0.353029 1.83492 1.05844 1.10082" transform="translate(45.860912 17.692795)" id="Fill-34" fill="#FFFFFF" fill-rule="evenodd" stroke="none" />
    <path d="M2.07917 5.75482C2.55117 6.2324 3.10965 6.47151 3.75589 6.47151C4.40149 6.47151 4.96061 6.2324 5.43262 5.75482C5.90462 5.27724 6.14063 4.64433 6.14063 3.85674C6.14063 3.06851 5.90462 2.43624 5.43262 1.95737C4.96061 1.47979 4.40149 1.24132 3.75589 1.24132C3.10965 1.24132 2.55117 1.47979 2.07917 1.95737C1.60651 2.43624 1.37116 3.06851 1.37116 3.85674C1.37116 4.64433 1.60651 5.27724 2.07917 5.75482M1.05844 1.10082C1.76385 0.36737 2.66235 0 3.75589 0C4.84879 0 5.74794 0.36737 6.454 1.10082C7.15876 1.83492 7.51113 2.75334 7.51113 3.85674C7.51113 4.96014 7.15876 5.87792 6.454 6.61201C5.74794 7.34611 4.84879 7.71284 3.75589 7.71284C2.66235 7.71284 1.76385 7.34611 1.05844 6.61201C0.353029 5.87792 0 4.96014 0 3.85674C0 2.75334 0.353029 1.83492 1.05844 1.10082" transform="translate(53.83469 17.692795)" id="Fill-36" fill="#FFFFFF" fill-rule="evenodd" stroke="none" />
    <path d="M3.69673 6.47151C4.34232 6.47151 4.8917 6.23498 5.34355 5.76191C5.79605 5.28948 6.02165 4.654 6.02165 3.8561C6.02165 3.05819 5.79605 2.42335 5.34355 1.95028C4.8917 1.47721 4.34232 1.24132 3.69673 1.24132C3.06024 1.24132 2.51411 1.47979 2.05771 1.95737C1.60001 2.4356 1.37181 3.06851 1.37181 3.8561C1.37181 4.64433 1.60001 5.27659 2.05771 5.75482C2.51411 6.2324 3.06024 6.47151 3.69673 6.47151M3.59271 10.9038C2.72801 10.9038 2.0226 10.6898 1.47583 10.2612C0.929058 9.83262 0.53702 9.34215 0.298417 8.7911L1.5506 8.2742C1.68973 8.66735 1.94589 8.99799 2.31842 9.26352C2.6903 9.52971 3.11485 9.66247 3.59271 9.66247C4.34752 9.66247 4.94111 9.43883 5.37345 8.99025C5.8058 8.54232 6.02165 7.93455 6.02165 7.16565L6.02165 6.47151L5.96184 6.47151C5.72323 6.82599 5.38581 7.12182 4.94891 7.35771C4.51136 7.59425 4.0192 7.71284 3.47308 7.71284C2.52907 7.71284 1.71443 7.34353 1.02853 6.60428C0.343277 5.86567 0 4.94983 0 3.8561C0 2.76301 0.343277 1.84652 1.02853 1.10791C1.71443 0.369303 2.52907 0 3.47308 0C4.0192 0 4.51136 0.11859 4.94891 0.35448C5.38581 0.591014 5.72323 0.886199 5.96184 1.24132L6.02165 1.24132L6.02165 0.23589L7.33364 0.23589L7.33364 7.10635C7.33364 8.34768 6.97021 9.29059 6.2453 9.93639C5.52039 10.5809 4.63554 10.9038 3.59271 10.9038" transform="translate(61.80808 17.692987)" id="Fill-38" fill="#FFFFFF" fill-rule="evenodd" stroke="none" />
    <path d="M0 10.579L1.37051 10.579L1.37051 0L0 0L0 10.579Z" transform="translate(70.43831 14.590387)" id="Fill-40" fill="#FFFFFF" fill-rule="evenodd" stroke="none" />
    <path d="M5.69398 2.98472C5.66407 2.5703 5.47228 2.17715 5.1199 1.80269C4.76687 1.42823 4.24285 1.24132 3.5472 1.24132C3.04073 1.24132 2.60123 1.39858 2.2287 1.71375C1.85617 2.02956 1.60001 2.453 1.46088 2.98472L5.69398 2.98472ZM3.72664 7.71284C2.62334 7.71284 1.72614 7.34869 1.03633 6.6191C0.345227 5.89081 0 4.96916 0 3.85674C0 2.80232 0.335475 1.89679 1.00643 1.13756C1.67673 0.379616 2.53427 0 3.5771 0C4.66024 0 5.52689 0.349968 6.17768 1.04926C6.82848 1.74855 7.1542 2.68438 7.1542 3.85674L7.1399 4.10745L1.37181 4.10745C1.41082 4.83639 1.65722 5.41323 2.10907 5.83603C2.56157 6.25947 3.09014 6.47151 3.69673 6.47151C4.67975 6.47151 5.34615 6.05774 5.69398 5.23019L6.9156 5.7329C6.67765 6.29427 6.28431 6.76476 5.73819 7.14373C5.19206 7.52271 4.52111 7.71284 3.72664 7.71284L3.72664 7.71284Z" transform="translate(72.61311 17.692923)" id="Fill-42" fill="#FFFFFF" fill-rule="evenodd" stroke="none" />
    <path d="M1.37116 4.9943L3.66617 4.9943C4.2422 4.9943 4.70445 4.80159 5.05228 4.41746C5.40011 4.03398 5.57435 3.61054 5.57435 3.14714C5.57435 2.68438 5.40011 2.26094 5.05228 1.87681C4.70445 1.49204 4.2422 1.30062 3.66617 1.30062L1.37116 1.30062L1.37116 4.9943ZM1.37116 10.579L0 10.579L0 0L3.63627 0C4.54062 0 5.32274 0.298408 5.98394 0.893934C6.64449 1.4901 6.97476 2.2416 6.97476 3.14714C6.97476 4.05331 6.64449 4.80481 5.98394 5.40034C5.32274 5.99651 4.54062 6.29427 3.63627 6.29427L1.37116 6.29427L1.37116 10.579Z" transform="translate(83.79165 14.590065)" id="Fill-43" fill="#FFFFFF" fill-rule="evenodd" stroke="none" />
    <path d="M0 10.579L1.37051 10.579L1.37051 0L0 0L0 10.579Z" transform="translate(91.66167 14.590387)" id="Fill-44" fill="#FFFFFF" fill-rule="evenodd" stroke="none" />
    <path d="M2.95101 6.47151C3.51729 6.47151 4.03155 6.26205 4.49381 5.84312C4.95606 5.42483 5.18621 4.92985 5.18621 4.35881C4.79938 4.043 4.21815 3.88574 3.44317 3.88574C2.77677 3.88574 2.27551 4.02882 1.93743 4.3137C1.60001 4.6005 1.43097 4.93436 1.43097 5.31913C1.43097 5.67361 1.58441 5.95397 1.89322 6.1615C2.20074 6.36775 2.55377 6.47151 2.95101 6.47151M2.72736 7.71284C1.95239 7.71284 1.30419 7.49048 0.782776 7.0477C0.260708 6.60428 0 6.01842 0 5.28948C0 4.50125 0.308169 3.88316 0.924507 3.43523C1.5402 2.9873 2.30022 2.76301 3.20457 2.76301C4.00945 2.76301 4.67065 2.9106 5.18621 3.20643L5.18621 2.9989C5.18621 2.46718 5.00287 2.04116 4.63554 1.72148C4.26756 1.40116 3.81571 1.24132 3.27934 1.24132C2.8821 1.24132 2.52127 1.33478 2.19879 1.52169C1.87567 1.70859 1.65462 1.96511 1.53499 2.28994L0.282813 1.75822C0.451851 1.32511 0.784726 0.923581 1.28209 0.553633C1.77815 0.184329 2.43415 0 3.24943 0C4.18369 0 4.95801 0.271338 5.57435 0.812725C6.19004 1.35476 6.49821 2.11786 6.49821 3.10266L6.49821 7.4763L5.18621 7.4763L5.18621 6.47151L5.1277 6.47151C4.58093 7.29842 3.7806 7.71284 2.72736 7.71284" transform="translate(93.83634 17.692987)" id="Fill-45" fill="#FFFFFF" fill-rule="evenodd" stroke="none" />
    <path d="M2.72736 10.4314L1.31134 10.4314L3.01083 6.78216L0 0L1.49013 0L3.66617 5.20183L3.69608 5.20183L5.8123 0L7.30244 0L2.72736 10.4314Z" transform="translate(100.58875 17.92875)" id="Fill-46" fill="#FFFFFF" fill-rule="evenodd" stroke="none" />
    <path d="M0.00642922 11.3493C0.00642922 7.97012 0.00707937 4.59161 0.00447878 1.21245C0.00382864 0.797387 0.085747 0.41906 0.381563 0.105829C0.497289 -0.015983 0.579858 -0.048853 0.72159 0.0942279C3.01465 2.41446 5.31357 4.72889 7.61183 7.04396C9.10067 8.54309 10.5882 10.0435 12.0829 11.5362C12.2279 11.6812 12.2402 11.7573 12.0868 11.9087C8.43167 15.5115 4.7798 19.1182 1.13638 22.7345C0.914033 22.955 0.757348 22.9317 0.5441 22.7687C0.154662 22.4716 0.00447878 22.0726 0.00447878 21.5976C0.00512893 19.5964 0.0018782 17.5952 0.000577907 15.594C-0.000722384 14.1793 0.000577907 12.764 0.000577907 11.3493L0.00642922 11.3493Z" transform="translate(8.922367 8.350898)" id="Fill-47" fill="#FFFFFF" fill-rule="evenodd" stroke="none" />
    <path d="M0 6.01747e-05C0.278913 -0.00251786 0.475257 0.0780457 0.664449 0.183101C5.33315 2.77596 10.0005 5.37075 14.6718 7.95781C14.8864 8.07704 14.8825 8.14343 14.7167 8.3052C13.6719 9.32352 12.6369 10.3502 11.6012 11.3769C11.49 11.4884 11.4211 11.5522 11.2716 11.4008C7.55794 7.64587 3.83781 3.89676 0.120277 0.145719C0.08907 0.114138 0.0637143 0.0774012 0 6.01747e-05" transform="translate(10.23858 8.070929)" id="Fill-48" fill="#FFFFFF" fill-rule="evenodd" stroke="none" />
    <path d="M0 10.338C3.38856 6.94269 6.77907 3.55 10.1592 0.14635C10.3692 -0.0644044 10.4673 -0.036046 10.6552 0.157951C11.5134 1.04415 12.3853 1.91875 13.2604 2.78884C13.4145 2.94223 13.4268 3.00475 13.2181 3.11818C8.86864 5.47837 4.52241 7.84565 0.175539 10.211C0.103373 10.2503 0.0370583 10.3141 0 10.338" transform="translate(11.283624 20.661226)" id="Fill-49" fill="#FFFFFF" fill-rule="evenodd" stroke="none" />
    <path d="M8.42248 3.21711C8.40818 3.59801 8.22679 3.86548 7.95243 4.06593C7.74958 4.21416 7.52593 4.33597 7.30423 4.45779C5.98964 5.17835 4.67049 5.89246 3.3585 6.61818C3.18101 6.71615 3.07568 6.71163 2.9294 6.56146C1.99514 5.60501 1.05243 4.65565 0.105166 3.71273C-0.0333149 3.57545 -0.0365656 3.50005 0.104516 3.36212C1.20846 2.28386 2.30721 1.19915 3.4001 0.109931C3.52948 -0.0183263 3.62115 -0.0325055 3.78174 0.0577258C5.08073 0.78731 6.38622 1.50723 7.68912 2.23036C8.09156 2.45465 8.40558 2.74404 8.42248 3.21711" transform="translate(22.217607 16.576849)" id="Fill-50" fill="#FFFFFF" fill-rule="evenodd" stroke="none" />
  </g>
</svg>