<svg width="132px" height="132px" viewBox="0 0 132 132" version="1.1" xmlns:xlink="http://www.w3.org/1999/xlink" xmlns="http://www.w3.org/2000/svg">
  <defs>
    <radialGradient gradientUnits="objectBoundingBox" cx="50%" cy="50%" fx="50%" fy="50%" r="683.2961%" gradientTransform="translate(0.5,0.5),scale(0.07317472,1),scale(1,0),translate(-0.5,-0.5)" id="gradient_1">
      <stop offset="0%" stop-color="#D5D5D5" />
      <stop offset="100%" stop-color="#D7D7D7" stop-opacity="0" />
    </radialGradient>
    <filter filterUnits="userSpaceOnUse" color-interpolation-filters="sRGB" id="filter_1">
      <feFlood flood-opacity="0" result="BackgroundImageFix" />
      <feBlend mode="normal" in="SourceGraphic" in2="BackgroundImageFix" result="shape" />
      <feGaussianBlur stdDeviation="1" result="effect0_gaussianBlur" />
    </filter>
  </defs>
  <g id="Group-7" transform="translate(1.5 1.5)">
    <g id="Group-6">
      <path d="M64.5 129C100.122 129 129 100.122 129 64.5C129 28.8776 100.122 0 64.5 0C28.8776 0 0 28.8776 0 64.5C0 100.122 28.8776 129 64.5 129Z" id="Oval" fill="#D2F9FF" fill-rule="evenodd" stroke="none" />
      <g id="Group-2" transform="translate(10.952637 38.94339)">
        <path d="M45.434 0.40566L6.30523e-15 0.40566" transform="translate(61.660378 12.169811)" id="Line-2" fill="none" fill-rule="evenodd" stroke="#DDE5E6" stroke-width="3" stroke-linecap="round" stroke-linejoin="round" />
        <path d="M4.86792 0.40566L0 0.40566" transform="translate(18.660378 0)" id="Line-2-Copy-2" fill="none" fill-rule="evenodd" stroke="#DDE5E6" stroke-width="3" stroke-linecap="round" stroke-linejoin="round" />
        <path d="M12.9811 0.40566L8.64717e-15 0.40566" transform="translate(0 37.320755)" id="Line-2-Copy" fill="none" fill-rule="evenodd" stroke="#DDE5E6" stroke-width="3" stroke-linecap="round" stroke-linejoin="round" />
      </g>
      <g id="shopping-basket-(1)" transform="translate(29.31836 24.1875)">
        <g id="Group" transform="translate(23.323938 2.4879973)">
          <path d="M0 0L45.7598 0L45.7598 7.08553L0 7.08553L0 0Z" transform="translate(0 32.149338)" id="Rectangle" fill="#E1E471" stroke="none" />
          <path d="M38.6161 18.9534L40.0331 0L0 0L1.41687 18.9534C1.80181 24.103 5.64175 28.3423 10.8057 28.3423L29.2274 28.3423C34.3914 28.3423 38.2313 24.103 38.6161 18.9534Z" transform="translate(1.8297126 39.235695)" id="Path" fill="#F9FF2C" stroke="none" />
          <g id="Group" transform="translate(1.1136371 0)">
            <path d="M0 4.59736C0 6.55744 1.07112 8.27389 2.65722 9.19506C4.24315 8.27373 5.3141 6.55711 5.3141 4.59736C5.3141 2.63762 4.24298 0.921167 2.65722 0C1.07112 0.921167 0 2.63762 0 4.59736Z" id="Path" fill="#E1E471" stroke="none" />
            <path d="M0 4.59736C0 6.55744 1.07112 8.27389 2.65722 9.19506C4.24315 8.27373 5.3141 6.55711 5.3141 4.59736C5.3141 2.63762 4.24298 0.921167 2.65722 0C1.07112 0.921167 0 2.63762 0 4.59736Z" transform="translate(21.980299 0)" id="Path" fill="#E1E471" stroke="none" />
          </g>
        </g>
        <g id="Group">
          <path d="M69.0839 32.8667L55.1641 32.8667L49.9048 13.2501C52.0512 12.0311 53.5034 9.72531 53.5034 7.08536C53.5034 3.17833 50.3251 0 46.4182 0C42.5112 0 39.3323 3.17833 39.3323 7.08536C39.3323 10.9924 42.511 14.1711 46.4182 14.1711C46.44 14.1711 46.4614 14.1696 46.4831 14.1694L51.496 32.8667L19.3589 32.8667L24.3718 14.1692C24.3939 14.1694 24.4158 14.1711 24.4379 14.1711C28.3446 14.1711 31.5231 10.9926 31.5231 7.08536C31.5229 3.17833 28.3446 0 24.4379 0C20.5305 0 17.352 3.17833 17.352 7.08536C17.352 9.72498 18.804 12.0306 20.9504 13.2497L15.6911 32.8667L1.77142 32.8667C0.793296 32.8667 0 33.6597 0 34.6382L0 41.7239C0 42.7022 0.793296 43.4953 1.77142 43.4953L4.0246 43.4953L5.31892 60.8093C5.78889 67.0964 10.5847 71.8376 16.4742 71.8376L54.3812 71.8376C60.2707 71.8376 65.0664 67.0965 65.5364 60.8093L66.831 43.4951L69.084 43.4951C70.0621 43.4951 70.8554 42.7022 70.8554 41.7237L70.8554 34.638C70.8551 33.6597 70.0618 32.8667 69.0839 32.8667ZM42.8752 7.08536C42.8752 5.1321 44.4646 3.54285 46.4182 3.54285C48.3715 3.54285 49.9606 5.1321 49.9606 7.08536C49.9606 8.0615 49.5638 8.94696 48.9231 9.5883L48.1289 6.62652C47.8756 5.68177 46.9048 5.12064 45.9592 5.37439C45.0143 5.62764 44.4535 6.59912 44.7069 7.5442L45.5005 10.5035C43.991 10.0973 42.8752 8.72094 42.8752 7.08536ZM20.8947 7.08536C20.8947 5.1321 22.4841 3.54285 24.4377 3.54285C26.391 3.54285 27.9801 5.1321 27.9801 7.08536C27.9801 8.72144 26.864 10.0981 25.3546 10.5035L26.1481 7.54404C26.4013 6.59896 25.8407 5.6278 24.8959 5.37422C23.9502 5.12031 22.9797 5.68161 22.7261 6.62636L21.9323 9.58747C21.2916 8.94629 20.8947 8.06133 20.8947 7.08536ZM62.0031 60.5453C61.6732 64.9631 58.396 68.2949 54.3811 68.2949L16.4742 68.2949C12.4591 68.2949 9.18211 64.9633 8.8518 60.5453L7.57725 43.4953L63.278 43.4953L62.0031 60.5453ZM67.3124 39.9523L65.1868 39.9523L5.66849 39.9523L3.54285 39.9523L3.54285 36.4094L17.0445 36.4094C17.0467 36.4094 17.0488 36.4098 17.051 36.4098C17.0545 36.4098 17.0579 36.4094 17.0614 36.4094L53.7935 36.4094C53.797 36.4094 53.8005 36.4098 53.804 36.4098C53.8061 36.4098 53.8085 36.4094 53.8105 36.4094L67.3124 36.4094L67.3124 39.9523L67.3124 39.9523Z" id="Shape" fill="#2B8ECD" stroke="none" />
          <path d="M1.77142 17.7139C2.74972 17.7139 3.54285 16.9209 3.54285 15.9425L3.54285 1.77142C3.54285 0.79313 2.74988 0 1.77142 0C0.793296 0 0 0.792964 0 1.77142L0 15.9425C0 16.9208 0.793296 17.7139 1.77142 17.7139Z" transform="translate(15.941318 47.037796)" id="Path" fill="#2B8ECD" stroke="none" />
          <path d="M1.77142 17.7139C2.74955 17.7139 3.54285 16.9209 3.54285 15.9425L3.54285 1.77142C3.54285 0.79313 2.74955 0 1.77142 0C0.79313 0 0 0.792964 0 1.77142L0 15.9425C0 16.9208 0.792964 17.7139 1.77142 17.7139Z" transform="translate(42.51151 47.037796)" id="Path" fill="#2B8ECD" stroke="none" />
          <path d="M1.77142 4.42914C2.74938 4.42914 3.54285 3.63618 3.54285 2.65772L3.54285 1.77142C3.54285 0.79313 2.74938 0 1.77142 0C0.79313 0 0 0.792964 0 1.77142L0 2.65772C-9.43975e-15 3.63618 0.792964 4.42914 1.77142 4.42914Z" transform="translate(51.425755 47.037964)" id="Path" fill="#2B8ECD" stroke="none" />
          <path d="M1.77142 10.6284C2.74938 10.6284 3.54285 9.83541 3.54285 8.85695L3.54285 1.77142C3.54285 0.79313 2.74938 0 1.77142 0C0.79313 0 0 0.792964 0 1.77142L0 8.85695C-9.43975e-15 9.83525 0.792964 10.6284 1.77142 10.6284Z" transform="translate(51.425755 54.123325)" id="Path" fill="#2B8ECD" stroke="none" />
          <path d="M1.77142 4.63705C2.74955 4.63705 3.54301 3.84409 3.54301 2.86563L3.54301 1.77142C3.54301 0.79313 2.74955 0 1.77142 0C0.79313 0 0 0.792964 0 1.77142L0 2.86563C0 3.84392 0.79313 4.63705 1.77142 4.63705Z" transform="translate(33.65522 60.114647)" id="Path" fill="#2B8ECD" stroke="none" />
          <path d="M1.77142 4.59056C2.74972 4.59056 3.54285 3.79759 3.54285 2.81913L3.54285 1.77142C3.54285 0.79313 2.74988 0 1.77142 0C0.793296 0 0 0.792964 0 1.77142L0 2.81913C0.000166066 3.79743 0.793296 4.59056 1.77142 4.59056Z" transform="translate(24.75858 47.03813)" id="Path" fill="#2B8ECD" stroke="none" />
          <path d="M1.77142 10.6285C2.74955 10.6285 3.54301 9.83558 3.54301 8.85712L3.54301 1.77142C3.54301 0.79313 2.74955 0 1.77142 0C0.79313 0 0 0.792964 0 1.77142L0 8.85712C0 9.83558 0.79313 10.6285 1.77142 10.6285Z" transform="translate(33.65522 47.037632)" id="Path" fill="#2B8ECD" stroke="none" />
          <path d="M1.77142 10.6284C2.74972 10.6284 3.54285 9.83541 3.54285 8.85695L3.54285 1.77142C3.54285 0.79313 2.74988 0 1.77142 0C0.793296 0 0 0.792964 0 1.77142L0 8.85695C0.000166066 9.83525 0.793296 10.6284 1.77142 10.6284Z" transform="translate(24.75858 54.123325)" id="Path" fill="#2B8ECD" stroke="none" />
        </g>
      </g>
      <path d="M43.6108 6.38242C67.6964 6.38242 87.2216 4.95366 87.2216 3.19121C87.2216 1.42875 67.6964 0 43.6108 0C19.5252 0 0 1.42875 0 3.19121C0 4.95366 19.5252 6.38242 43.6108 6.38242Z" transform="translate(21.25586 104.07953)" id="Oval" fill="url(#gradient_1)" style="mix-blend-mode: multiply;" stroke="none" filter="url(#filter_1)" />
    </g>
  </g>
</svg>