<?xml version="1.0" encoding="utf-8"?>
<svg width="29px" height="36px" viewBox="0 0 29 36" version="1.1" xmlns:xlink="http://www.w3.org/1999/xlink" xmlns="http://www.w3.org/2000/svg">
  <g id="best-practice">
    <g id="Group" transform="translate(0.5978501 0.5978501)">
      <path d="M13.6421 27.2846C10.46 27.2846 7.36368 26.1656 4.92435 24.1339C1.79624 21.5369 0 17.7115 0 13.6424C-0.000149313 6.1199 6.11975 0 13.6421 0C21.1645 0 27.2844 6.1199 27.2844 13.6423C27.2844 17.7115 25.4881 21.5368 22.3559 24.1372C19.9206 26.1655 16.8243 27.2846 13.6421 27.2846L13.6421 27.2846Z" id="Path" fill="#A1D584" stroke="none" />
      <path d="M6.51498 2.35347C4.03653 2.35347 1.76638 1.47118 0 0L0 11.9167C0 12.4348 0.5653 12.7537 1.00906 12.4874L6.17067 9.3712C6.38269 9.24443 6.64713 9.24443 6.85915 9.3712L7.25767 9.61219L12.0208 12.4874C12.4647 12.7537 13.0298 12.4348 13.0298 11.9167L13.0298 0.481983L13.0298 0C11.2634 1.47118 8.99343 2.35347 6.51498 2.35347Z" transform="translate(7.127167 21.488708)" id="Path" fill="#FFD47B" stroke="none" />
      <path d="M10.2 3.1828e-15C4.56734 3.1828e-15 0 4.56555 0 10.2C0 13.3561 1.43311 16.1769 3.68505 18.0466C5.45143 19.5178 7.72158 20.4001 10.2 20.4001C12.6785 20.4001 14.9485 19.5178 16.715 18.0466C18.967 16.1769 20.4001 13.3561 20.4001 10.2C20.4001 4.56555 15.8327 0 10.2 3.1828e-15Z" transform="translate(3.4421172 3.4422665)" id="Path" fill="#FFD47B" stroke="none" />
      <path d="M8.45591 3.79765L8.51966 3.79765C9.95128 3.79765 11.1119 4.95826 11.1119 6.38988L11.1119 10.1175C11.1119 11.5491 9.95128 12.7097 8.51966 12.7097L6.43689 12.7097C5.24448 12.7097 4.163 12.241 3.36358 11.4789C3.25682 11.3763 3.11363 11.3212 2.96641 11.3212L1.03683 11.3212C0.464215 11.3212 0 10.857 0 10.2844L0 5.92746C0 5.35484 0.464215 4.89063 1.03683 4.89063L3.28997 4.89063C3.43301 4.89063 3.57307 4.83881 3.67982 4.74236C4.72337 3.79691 6.28952 1.39819 7.07252 0.230411C7.23213 -0.00804181 7.55361 -0.0713506 7.79206 0.0873693C8.79873 0.765849 8.88742 1.7319 8.43739 2.44502L8.04918 3.0602C7.84716 3.38032 8.07725 3.79765 8.45591 3.79765L8.45591 3.79765Z" transform="translate(7.6866436 7.020835)" id="Path" fill="#FFBB98" stroke="none" />
      <path d="M11.5588 10.2C11.5588 13.3561 10.1257 16.1769 7.87373 18.0466C6.10736 19.5178 3.8372 20.4001 1.35875 20.4001C0.898567 20.4001 0.443759 20.3693 0 20.3112C1.94585 20.0522 3.7176 19.2441 5.15623 18.0466C7.40817 16.1769 8.84128 13.3561 8.84128 10.2C8.84128 5.02573 4.99139 0.753733 0.000149313 0.0906331C0.444057 0.0307585 0.898716 0 1.3589 0C6.99144 0 11.5588 4.56555 11.5588 10.2Z" transform="translate(12.2834 3.4422665)" id="Path" fill="#FFD47B" stroke="none" />
    </g>
    <g id="Group">
      <path d="M14.24 0C6.38762 0 0 6.38911 0 14.24C0 19.3786 2.74632 24.0561 7.12821 26.5748L7.12821 34.0031C7.12821 34.9845 8.19595 35.5916 9.04241 35.0856L14.2027 31.9709C14.2251 31.956 14.2549 31.956 14.2758 31.9694L19.4391 35.0856C20.2721 35.5916 21.3518 34.991 21.3518 34.0031L21.3518 26.5763C25.6746 24.0809 28.48 19.4491 28.48 14.24C28.48 6.38911 22.0924 2.12187e-15 14.24 0ZM20.1573 34.0031C20.1573 34.0564 20.1047 34.0881 20.0543 34.0628L14.891 30.9452C14.4974 30.7101 13.9954 30.7019 13.5875 30.9467L8.42724 34.0613C8.37901 34.0888 8.32272 34.0583 8.32272 34.0031C8.32272 31.4818 8.32272 25.473 8.32272 23.272C10.0522 24.4091 12.184 25.0772 14.4759 25.0339C16.3779 25.0037 18.4314 24.4069 20.1573 23.272L20.1573 34.0031ZM14.24 23.8423C8.95521 23.8423 4.63767 19.556 4.63767 14.24C4.63767 8.94535 8.94535 4.63767 14.24 4.63767C19.5346 4.63767 23.8423 8.94535 23.8423 14.24C23.8423 19.5602 19.5231 23.8423 14.24 23.8423ZM21.3518 25.1742L21.3518 22.3641C23.6975 20.3096 25.0368 17.3666 25.0368 14.24C25.0368 8.28688 20.1931 3.44316 14.24 3.44316C8.28688 3.44316 3.44316 8.28688 3.44316 14.24C3.44316 17.3666 4.7825 20.3096 7.12821 22.3641L7.12821 25.1742C3.49288 22.8188 1.19451 18.7448 1.19451 14.24C1.19451 7.04758 7.04758 1.19451 14.24 1.19451C21.4324 1.19451 27.2855 7.04758 27.2855 14.24C27.2855 18.8103 24.9222 22.8654 21.3518 25.1742Z" id="Shape" fill="#000000" stroke="none" />
      <path d="M9.26339 3.79994L9.53962 3.35946C10.0995 2.47404 10.0816 1.10334 8.72138 0.186557C8.20924 -0.153877 7.51493 -0.0150157 7.1745 0.494142C6.44003 1.5907 4.85477 4.01047 3.88812 4.88992L1.63498 4.88992C0.733128 4.88992 0 5.62305 0 6.52341L0 10.8804C0 11.7822 0.733128 12.5153 1.63498 12.5153L3.55664 12.5153C4.5003 13.4097 5.73512 13.904 7.03414 13.904L9.11706 13.904C10.876 13.904 12.3064 12.472 12.3064 10.7146L12.3064 6.98628C12.3064 5.27664 10.9536 3.87609 9.26339 3.79994L9.26339 3.79994ZM11.1119 10.7146C11.1119 11.8136 10.2175 12.7095 9.11706 12.7095L7.03415 12.7095C6.03972 12.7095 5.09457 12.3302 4.37488 11.6449C4.15837 11.4358 3.8702 11.3208 3.56411 11.3208L1.63498 11.3208C1.3916 11.3208 1.19451 11.1237 1.19451 10.8804L1.19451 6.52341C1.19451 6.28152 1.3916 6.08443 1.63498 6.08443L3.88812 6.08443C4.18226 6.08443 4.46148 5.97692 4.67798 5.78132C5.75767 4.80317 7.30261 2.45194 8.12264 1.22578C8.70496 1.64833 8.85726 2.20378 8.53026 2.7219L8.14205 3.33707C7.68873 4.05914 8.20864 4.99146 9.05435 4.99146L9.11706 4.99146C10.2175 4.99146 11.1119 5.88584 11.1119 6.98628L11.1119 10.7146Z" transform="translate(7.6866436 7.022284)" id="Shape" fill="#000000" stroke="none" />
      <path d="M0.597253 0C0.267271 0 0 0.267271 0 0.597253L0 0.930221C0 1.2602 0.267271 1.52747 0.597253 1.52747C0.927235 1.52747 1.19451 1.2602 1.19451 0.930221L1.19451 0.597253C1.19451 0.267271 0.927235 0 0.597253 0Z" transform="translate(17.439781 29.699888)" id="Path" fill="#000000" stroke="none" />
      <path d="M0.597253 0C0.267271 0 0 0.267271 0 0.597253L0 2.68764C0 3.01508 0.265628 3.28489 0.597253 3.28489C0.927235 3.28489 1.19451 3.01762 1.19451 2.68764C1.19451 2.35482 1.19451 0.847203 1.19451 0.597253C1.19451 0.267271 0.927235 0 0.597253 0Z" transform="translate(17.439781 25.369806)" id="Path" fill="#000000" stroke="none" />
    </g>
  </g>
</svg>