<svg width="144px" height="40px" viewBox="0 0 144 40" version="1.1" xmlns="http://www.w3.org/2000/svg" xmlns:xlink="http://www.w3.org/1999/xlink">
    <title>FCDA580B-FF1D-4E7D-9474-51F96AF687FB</title>
    <defs>
        <polygon id="path-1" points="5.90415311e-17 0 30.364786 0 30.364786 39.439916 5.90415311e-17 39.439916"></polygon>
        <polygon id="path-3" points="0 39.44 143.783861 39.44 143.783861 0 0 0"></polygon>
    </defs>
    <g id="web" stroke="none" stroke-width="1" fill="none" fill-rule="evenodd">
        <g id="Homepage-RD" transform="translate(-65.000000, -46.000000)">
            <g id="Logo" transform="translate(65.000000, 46.000000)">
                <g id="Group-3" transform="translate(0.000103, 0.000084)">
                    <mask id="mask-2" fill="white">
                        <use xlink:href="#path-1"></use>
                    </mask>
                    <g id="Clip-2"></g>
                    <path d="M17.6040187,21.0102473 C17.6406477,21.0196566 17.6786208,21.0260415 17.7184422,21.0260415 C17.9424167,21.0260415 18.2376328,20.8652436 18.5933371,20.5092033 L25.7131367,13.4023414 C26.4593261,12.6586723 26.6895174,11.5307351 26.2862626,10.5948479 C24.5285757,6.52399063 21.5340728,4.15906923 17.6040187,3.72590636 L17.6040187,21.0102473 Z M11.9577793,4.28357415 C11.6988562,4.28357415 11.4417812,4.333981 11.1956278,4.43177029 C10.0445033,4.89164879 9.00292977,5.56138781 8.10417563,6.4214967 C5.17150507,9.23050245 3.62972754,13.8292874 3.64075764,19.7168076 C3.62972754,25.6105445 5.17150507,30.2108417 8.10417563,33.0200155 C9.69199142,34.5417983 11.660883,35.4413926 13.9632999,35.6998117 L13.9632999,6.254482 C13.9632999,5.16737426 13.0630335,4.28357415 11.9577793,4.28357415 L11.9577793,4.28357415 Z M15.200116,39.4383198 C11.5099985,39.4383198 8.1819702,38.1181644 5.57475987,35.621009 C1.91320626,32.1125242 -0.0158639078,26.6126327 5.90415311e-17,19.7168076 C-0.0158639078,12.8288795 1.91320626,7.33050023 5.57475987,3.82033519 C8.18365043,1.32334785 11.5370502,0.00151220551 15.2715257,0.00151220551 L15.8510364,0.0126017126 L16.429203,0 C22.1500445,0 26.8976977,3.19646641 29.4538291,8.77045593 C29.6428548,9.18328803 29.8953931,9.8938566 30.1351617,10.6153467 C30.6716586,12.2413036 30.2526097,14.0010068 29.0396528,15.209427 L19.0967335,25.1316795 C18.1344668,26.0894096 17.6040187,27.3640308 17.6040187,28.7174548 L17.6040187,33.193247 C17.6040187,33.7304161 17.8169036,34.2329724 18.2041962,34.6111918 C18.577375,34.9751292 19.0807714,35.1831415 19.58568,35.1831415 C19.8205759,35.1831415 20.0556399,35.1389515 20.2812945,35.0522517 C21.4671997,34.5922052 22.5373371,33.9085203 23.4614627,33.0230399 C24.1585895,32.3534689 24.8016129,31.5012571 25.4288421,30.4173418 C25.6225724,30.0833124 25.979957,29.8769804 26.362545,29.8769804 L26.4862098,29.8769804 L26.8150305,29.9777941 L28.1471155,30.6014948 C28.4186404,30.7291922 28.6251405,30.9656003 28.7157048,31.2475426 C28.8045889,31.5279727 28.7743448,31.8351185 28.6298451,32.0903452 C27.8026687,33.5586967 26.9388633,34.7135177 25.9925587,35.621009 C23.3868606,38.1196766 20.0366533,39.44 16.3068824,39.44 L15.200116,39.4383198 Z" id="Fill-1" fill="#FFD008" mask="url(#mask-2)"></path>
                </g>
                <path d="M50.0477856,23.0085597 C50.0477856,24.9655217 50.4194521,25.3618875 51.5092482,25.3618875 L55.7452719,25.3618875 L55.7452719,27.2939821 L50.4194521,27.2939821 C47.6448911,27.2939821 46.6046617,25.8078202 46.6046617,23.0085597 L46.6046617,14.3632808 C46.6046617,11.4153202 47.6697584,9.9291582 50.4194521,9.9291582 L55.6957052,9.9291582 L55.6957052,11.9108195 L51.5092482,11.9108195 C50.3698854,11.9108195 50.0477856,12.282486 50.0477856,14.3632808 L50.0477856,23.0085597 Z" id="Fill-4" fill="#FFD008"></path>
                <path d="M60.749244,23.2314588 C60.749244,25.1637214 60.9970777,25.3618203 62.4585403,25.3618203 L63.4742383,25.3618203 C64.9604003,25.3618203 65.208234,25.1637214 65.208234,23.2314588 L65.208234,17.633106 C65.208234,15.676144 64.9604003,15.5274438 63.4742383,15.5274438 L62.4585403,15.5274438 C60.9970777,15.5274438 60.749244,15.676144 60.749244,17.633106 L60.749244,23.2314588 Z M64.6878673,13.5457825 C67.7845281,13.5457825 68.5772598,14.6853134 68.5772598,17.7569388 L68.5772598,23.0829266 C68.5772598,26.1545521 67.7845281,27.2940829 64.6878673,27.2940829 L61.220044,27.2940829 C58.1484185,27.2940829 57.3803861,26.1545521 57.3803861,23.0829266 L57.3803861,17.7569388 C57.3803861,14.6853134 58.1484185,13.5457825 61.220044,13.5457825 L64.6878673,13.5457825 Z" id="Fill-6" fill="#FFD008"></path>
                <path d="M76.5289405,15.527511 L74.2251794,15.527511 L74.2251794,27.2939821 L70.8561535,27.2939821 L70.8561535,12.9759163 C70.8561535,10.3255241 71.7727181,9.43365886 74.3243129,9.43365886 L76.5289405,9.43365886 L76.5289405,11.3163547 L74.9683444,11.3163547 C74.4481457,11.3163547 74.2251794,11.4897543 74.2251794,12.1337858 L74.2251794,13.5458497 L76.5289405,13.5458497 L76.5289405,15.527511 Z" id="Fill-8" fill="#FFD008"></path>
                <path d="M81.879426,21.7451792 L81.879426,19.8624834 L83.1180904,19.8624834 C84.579553,19.8624834 84.8023513,19.6148177 84.8023513,18.4752868 L84.8023513,17.0138242 C84.8023513,15.6760264 84.579553,15.5274942 83.1180904,15.5274942 L82.622591,15.5274942 C81.136261,15.5274942 80.8885954,15.6760264 80.8885954,17.6329884 L80.8885954,23.2315092 C80.8885954,25.1636038 81.136261,25.3618707 82.622591,25.3618707 L87.1558471,25.3618707 L87.1558471,27.2939653 L81.4087941,27.2939653 C78.3124693,27.2939653 77.5197375,26.1546025 77.5197375,23.082809 L77.5197375,17.7569892 C77.5197375,14.6851958 78.3124693,13.5458329 81.4087941,13.5458329 L84.3318873,13.5458329 C87.4282121,13.5458329 88.1962445,14.6851958 88.1962445,16.7908579 L88.1962445,18.5001542 C88.1962445,20.6056484 87.4282121,21.7451792 84.3318873,21.7451792 L81.879426,21.7451792 Z" id="Fill-10" fill="#FFD008"></path>
                <path d="M96.6186747,20.4322656 L94.9093784,20.4322656 L94.9093784,18.500003 L96.1976095,18.500003 C97.2131395,18.500003 97.4856726,17.9304056 97.4856726,15.1807119 C97.4856726,12.4805849 97.2131395,11.9108195 96.1976095,11.9108195 L93.5717486,11.9108195 L93.5717486,27.2939821 L90.07889,27.2939821 L90.07889,9.9291582 L96.6186747,9.9291582 C100.086834,9.9291582 100.904265,10.8951215 100.904265,15.2796773 C100.904265,19.6644012 100.086834,20.4322656 96.6186747,20.4322656" id="Fill-12" fill="#FFD008"></path>
                <path d="M106.651133,21.7451792 L106.651133,19.8624834 L107.889798,19.8624834 C109.35126,19.8624834 109.574227,19.6148177 109.574227,18.4752868 L109.574227,17.0138242 C109.574227,15.6760264 109.35126,15.5274942 107.889798,15.5274942 L107.394298,15.5274942 C105.907968,15.5274942 105.660303,15.6760264 105.660303,17.6329884 L105.660303,23.2315092 C105.660303,25.1636038 105.907968,25.3618707 107.394298,25.3618707 L111.927554,25.3618707 L111.927554,27.2939653 L106.180501,27.2939653 C103.084177,27.2939653 102.291445,26.1546025 102.291445,23.082809 L102.291445,17.7569892 C102.291445,14.6851958 103.084177,13.5458329 106.180501,13.5458329 L109.103595,13.5458329 C112.199919,13.5458329 112.967952,14.6851958 112.967952,16.7908579 L112.967952,18.5001542 C112.967952,20.6056484 112.199919,21.7451792 109.103595,21.7451792 L106.651133,21.7451792 Z" id="Fill-14" fill="#FFD008"></path>
                <path d="M119.730501,15.527511 C118.269039,15.527511 118.021205,15.6760432 118.021205,17.6330052 L118.021205,23.6277239 C118.021205,25.1389212 118.269039,25.3618875 119.730501,25.3618875 L122.058962,25.3618875 L122.058962,9.43365886 L125.452855,9.43365886 L125.452855,27.2939821 L118.492005,27.2939821 C115.494646,27.2939821 114.652347,26.2535847 114.652347,23.0828258 L114.652347,17.757006 C114.652347,14.6852126 115.42038,13.5458497 118.492005,13.5458497 L120.8949,13.5458497 L120.8949,15.527511 L119.730501,15.527511 Z" id="Fill-16" fill="#FFD008"></path>
                <mask id="mask-4" fill="white">
                    <use xlink:href="#path-3"></use>
                </mask>
                <g id="Clip-19"></g>
                <path d="M127.979633,27.2939653 L131.348659,27.2939653 L131.348659,13.5456649 L127.979633,13.5456649 L127.979633,27.2939653 Z M127.979633,11.7869699 L131.348659,11.7869699 L131.348659,9.4089427 L127.979633,9.4089427 L127.979633,11.7869699 Z" id="Fill-18" fill="#FFD008" mask="url(#mask-4)"></path>
                <path d="M139.399187,18.8716527 L139.399187,20.7543486 L138.557057,20.7543486 C137.070727,20.7543486 136.823061,21.0268816 136.823061,22.1662445 L136.823061,23.8755407 C136.823061,25.1636038 137.070727,25.3618707 138.557057,25.3618707 L140.390018,25.3618707 L140.390018,17.6329884 C140.390018,15.6760264 140.167219,15.5274942 138.656022,15.5274942 L135.287164,15.5274942 L135.287164,13.5458329 L139.894686,13.5458329 C142.966312,13.5458329 143.783911,14.6851958 143.783911,17.7569892 L143.783911,27.2939653 L137.34326,27.2939653 C134.246767,27.2939653 133.454035,26.1546025 133.454035,24.0489403 L133.454035,22.1166777 C133.454035,20.0111836 134.246767,18.8716527 137.34326,18.8716527 L139.399187,18.8716527 Z" id="Fill-20" fill="#FFD008" mask="url(#mask-4)"></path>
            </g>
        </g>
    </g>
</svg>