<?xml version="1.0" encoding="utf-8"?>
<svg width="20px" height="15px" viewBox="0 0 20 15" version="1.1" xmlns:xlink="http://www.w3.org/1999/xlink" xmlns="http://www.w3.org/2000/svg">
  <path d="M10 15C12.6563 15 14.987 14.9479 16.9922 14.8438C17.7995 14.8438 18.4831 14.5378 19.043 13.9258C19.6029 13.3138 19.8828 12.5651 19.8828 11.6797C19.9609 10.2734 20 8.88021 20 7.5C20 6.11979 19.9609 4.72656 19.8828 3.32031C19.8828 2.4349 19.6029 1.6862 19.043 1.07422C18.4831 0.46224 17.7995 0.15625 16.9922 0.15625C15.0911 0.0520833 12.8776 0 10.3516 0L10.3516 0L9.64844 0C7.1224 0 4.90885 0.0520833 3.00781 0.15625C2.20052 0.15625 1.52344 0.46224 0.976563 1.07422C0.429688 1.6862 0.15625 2.4349 0.15625 3.32031C0.0520833 5.19531 0 6.58854 0 7.5C0 8.88021 0.0390625 10.2734 0.117188 11.6797C0.117188 12.5651 0.397135 13.3138 0.957031 13.9258C1.51693 14.5378 2.20052 14.8438 3.00781 14.8438C5.01302 14.9479 7.34375 15 10 15ZM8.08594 11.3281L8.08594 3.63281L13.75 7.5L8.08594 11.3281Z" id="youtube" fill="#107CC0" stroke="none" />
</svg>