<?xml version="1.0" encoding="utf-8"?>
<svg width="16px" height="16px" viewBox="0 0 16 16" version="1.1" xmlns:xlink="http://www.w3.org/1999/xlink" xmlns="http://www.w3.org/2000/svg">
  <path d="M15.0531 1.92421L15.0531 13.5095C15.0531 14.0173 14.8702 14.4583 14.5043 14.8324C14.1384 15.2066 13.6941 15.3937 13.1715 15.3937L1.88164 15.3937C1.35896 15.3937 0.914687 15.2066 0.548811 14.8324C0.182935 14.4583 0 14.0173 0 13.5095L0 1.92421C0 1.3897 0.182935 0.935381 0.548811 0.561227C0.914687 0.187074 1.35896 0 1.88164 0L13.1715 0C13.6941 0 14.1384 0.187074 14.5043 0.561227C14.8702 0.935381 15.0531 1.3897 15.0531 1.92421ZM9.72179 5.45192C9.12071 4.81052 8.38897 4.48982 7.52655 4.48982C6.66413 4.48982 5.92585 4.80384 5.3117 5.43188C4.69756 6.05992 4.39049 6.8149 4.39049 7.69683C4.39049 8.57877 4.69756 9.33374 5.3117 9.96179C5.92585 10.5898 6.66413 10.9038 7.52655 10.9038C8.38897 10.9038 9.12724 10.5898 9.74139 9.96179C10.3555 9.33374 10.6626 8.57877 10.6626 7.69683C10.6626 6.8149 10.349 6.0666 9.72179 5.45192ZM13.7987 3.84842L13.7987 1.92421C13.7987 1.4966 13.5896 1.28281 13.1715 1.28281L11.2898 1.28281C10.8717 1.28281 10.6626 1.4966 10.6626 1.92421L10.6626 3.84842C10.6626 4.27602 10.8717 4.48982 11.2898 4.48982L13.1715 4.48982C13.5896 4.48982 13.7987 4.27602 13.7987 3.84842ZM13.2107 14.1109C13.6027 14.1109 13.7987 13.8971 13.7987 13.4695L13.7987 6.41403L11.7602 6.41403C11.8648 6.76146 11.917 7.18905 11.917 7.69683C11.917 8.95292 11.4989 10.0086 10.6626 10.8638C9.80019 11.7457 8.75485 12.1867 7.52655 12.1867C6.32439 12.1867 5.29211 11.7457 4.42969 10.8638C3.56727 9.98182 3.13606 8.92619 3.13606 7.69683C3.13606 7.29595 3.2014 6.86836 3.33207 6.41403L1.25442 6.41403L1.25442 13.4695C1.25442 13.6565 1.31976 13.8102 1.45043 13.9305C1.5811 14.0507 1.7379 14.1109 1.92084 14.1109L13.2107 14.1109Z" id="ion-social-instagram-outline---Ionicons" fill="#107CC0" fill-rule="evenodd" stroke="none" />
</svg>