<?xml version="1.0" encoding="utf-8"?>
<svg width="18px" height="18px" viewBox="0 0 18 18" version="1.1" xmlns:xlink="http://www.w3.org/1999/xlink" xmlns="http://www.w3.org/2000/svg">
  <defs>
    <path d="M0 0L18 0L18 18L0 18L0 0Z" id="path_1" />
    <path d="M7.875 14.25C4.35418 14.25 1.5 11.3958 1.5 7.875C1.5 4.35418 4.35418 1.5 7.875 1.5C11.3958 1.5 14.25 4.35418 14.25 7.875C14.25 9.36515 13.7387 10.7359 12.882 11.8214L16.2803 15.2197C16.5732 15.5126 16.5732 15.9874 16.2803 16.2803C15.9874 16.5732 15.5126 16.5732 15.2197 16.2803L11.8214 12.882C10.7359 13.7387 9.36515 14.25 7.875 14.25ZM11.3698 11.2738C11.3526 11.2882 11.3358 11.3035 11.3197 11.3197C11.3035 11.3358 11.2882 11.3526 11.2738 11.3698C10.3957 12.224 9.19678 12.75 7.875 12.75C5.18261 12.75 3 10.5674 3 7.875C3 5.18261 5.18261 3 7.875 3C10.5674 3 12.75 5.18261 12.75 7.875C12.75 9.19678 12.224 10.3957 11.3698 11.2738Z" id="path_2" />
    <clipPath id="mask_1">
      <use xlink:href="#path_1" />
    </clipPath>
    <clipPath id="mask_2">
      <use xlink:href="#path_2" />
    </clipPath>
  </defs>
  <g id="Search-icon">
    <path d="M0 0L18 0L18 18L0 18L0 0Z" id="basic--heart_outline-(BackgroundMask)" fill="none" fill-rule="evenodd" stroke="none" />
    <path d="M7.875 14.25C4.35418 14.25 1.5 11.3958 1.5 7.875C1.5 4.35418 4.35418 1.5 7.875 1.5C11.3958 1.5 14.25 4.35418 14.25 7.875C14.25 9.36515 13.7387 10.7359 12.882 11.8214L16.2803 15.2197C16.5732 15.5126 16.5732 15.9874 16.2803 16.2803C15.9874 16.5732 15.5126 16.5732 15.2197 16.2803L11.8214 12.882C10.7359 13.7387 9.36515 14.25 7.875 14.25ZM11.3698 11.2738C11.3526 11.2882 11.3358 11.3035 11.3197 11.3197C11.3035 11.3358 11.2882 11.3526 11.2738 11.3698C10.3957 12.224 9.19678 12.75 7.875 12.75C5.18261 12.75 3 10.5674 3 7.875C3 5.18261 5.18261 3 7.875 3C10.5674 3 12.75 5.18261 12.75 7.875C12.75 9.19678 12.224 10.3957 11.3698 11.2738Z" id="Combined-Shape" fill="#FFFFFF" fill-rule="evenodd" stroke="none" />
  </g>
</svg>