<?xml version="1.0" encoding="utf-8"?>
<svg width="79px" height="111px" viewBox="0 0 79 111" version="1.1" xmlns:xlink="http://www.w3.org/1999/xlink" xmlns="http://www.w3.org/2000/svg">
  <path d="M59.0003 68.9478C59.1234 68.9788 59.2523 69 59.387 69C60.143 69 61.1408 68.4704 62.3428 67.297L86.3995 43.8821C88.9208 41.432 89.6985 37.7152 88.3372 34.6311C82.3965 21.2185 72.2792 13.4277 59.0003 12L59.0003 68.9478ZM40.2006 15C39.3243 15 38.4509 15.1674 37.6168 15.4909C33.7134 17.0133 30.182 19.2296 27.1345 22.0772C17.19 31.3763 11.9642 46.6005 12.0005 66.0898C11.9642 85.6004 17.19 100.829 27.1345 110.129C32.5188 115.166 39.195 118.144 47.0003 119L47.0003 21.5239C47.0003 17.9257 43.9471 15 40.2006 15L40.2006 15ZM50.5596 130.996C38.2848 130.996 27.2161 126.61 18.544 118.316C6.36471 106.662 -0.0521074 88.3944 0.000641298 65.49C-0.0521074 42.6127 6.36471 24.3493 18.544 12.6914C27.2218 4.39609 38.3761 0.00569441 50.7977 0.00569441L52.7252 0.0427081L54.6469 0C73.6764 0 89.4682 10.6187 97.9707 29.1326C98.5994 30.5036 99.4392 32.8625 100.236 35.2598C102.021 40.661 100.628 46.5049 96.5936 50.5194L63.5201 83.4758C60.3195 86.6576 58.556 90.89 58.556 95.3857L58.556 110.252C58.556 112.036 59.2631 113.706 60.5519 114.962C61.7937 116.17 63.4674 116.861 65.1468 116.861C65.928 116.861 66.7107 116.714 67.4606 116.427C71.4053 114.899 74.9652 112.627 78.0388 109.687C80.3569 107.462 82.4968 104.632 84.5825 101.032C85.2269 99.9213 86.4159 99.2366 87.689 99.2366L88.101 99.2366L89.1931 99.5711L93.6254 101.644C94.5264 102.068 95.215 102.853 95.5158 103.789C95.8109 104.722 95.7111 105.741 95.2307 106.589C92.4792 111.465 89.6051 115.302 86.4573 118.316C77.7908 126.615 66.6465 131 54.2406 131L50.5596 130.996Z" transform="translate(0 -20.943726)" id="Fill-1" fill="#3D65AE" fill-rule="evenodd" stroke="none" />
</svg>