<?xml version="1.0" encoding="utf-8"?>
<svg width="102px" height="102px" viewBox="0 0 102 102" version="1.1" xmlns:xlink="http://www.w3.org/1999/xlink" xmlns="http://www.w3.org/2000/svg">
  <g id="Group-18">
    <g id="Succ-sign">
      <path d="M50.9108 101.822C79.028 101.822 101.822 79.028 101.822 50.9108C101.822 22.7935 79.028 0 50.9108 0C22.7935 0 0 22.7935 0 50.9108C0 79.028 22.7935 101.822 50.9108 101.822Z" id="Oval" fill="#07CF5F" stroke="none" />
      <path d="M45.0228 0L0 46.6153L0.07905 51.626L2.1471 51.626L50.9108 12.3305C49.4789 7.95473 47.4899 3.7383 45.0241 0L45.0228 0Z" transform="translate(48.526367 23.148926)" id="Shape" fill="#37A18E" stroke="none" />
      <path d="M81.7959 9.80475L72.8071 0.89505C71.6137 -0.29835 69.6247 -0.29835 68.3523 0.89505L29.9302 40.5896L13.3042 24.2033C12.1108 23.0099 10.123 23.0099 8.84932 24.2033L0.894594 32.079C-0.298198 33.2932 -0.298198 35.2393 0.894594 36.4535L27.4656 62.7848C28.1821 63.5001 29.1358 63.7385 30.0908 63.6595C31.0458 63.7385 31.9995 63.5001 32.716 62.7848L81.7972 14.2583C82.9906 12.9872 82.9906 10.9981 81.7972 9.80475L81.7959 9.80475Z" transform="translate(19.072266 11.116699)" id="Shape" fill="#F2F1EF" stroke="none" />
      <path d="M32.6344 54.2538L81.7156 5.7273C82.9075 4.51321 82.9075 2.56814 81.7156 1.35405L80.285 0L29.9302 49.4802L2.08799 22.3546L0.894594 23.548C-0.298198 24.7622 -0.298198 26.7083 0.894594 27.9225L27.4618 54.2538C28.1783 54.9691 29.132 55.2075 30.0883 55.1284C30.9629 55.2075 31.9166 54.9691 32.6332 54.2538L32.6344 54.2538Z" transform="translate(19.152344 19.647705)" id="Shape" fill="#E6E5E3" stroke="none" />
    </g>
  </g>
</svg>