<?xml version="1.0" encoding="utf-8"?>
<svg width="29px" height="30px" viewBox="0 0 29 30" version="1.1" xmlns:xlink="http://www.w3.org/1999/xlink" xmlns="http://www.w3.org/2000/svg">
  <g id="debit-card">
    <path d="M5.05615 5.06581L0 0L0 20.3L6.76668 20.3L6.76668 9.17895C6.76668 7.63472 6.15093 6.15426 5.05615 5.06581Z" transform="translate(21.750048 3.3833873)" id="Path" fill="#FFD47B" stroke="none" />
    <path d="M3.95193 19.5008L0.129739 9.57797C-0.254025 8.58183 0.242376 7.46288 1.23898 7.07912L19.2804 0.129739C20.2765 -0.254025 21.3955 0.242376 21.7792 1.23898L25.6014 11.1618C25.9852 12.158 25.4888 13.2769 24.4922 13.6607L6.45125 20.6101C5.45459 20.9938 4.33617 20.4969 3.95193 19.5008Z" transform="translate(0.483152 0.48362768)" id="Path" fill="#DE4C3C" stroke="none" />
    <path d="M21.6321 0L0 8.38488L1.44035 12.124L23.0734 3.74294L21.6321 0Z" transform="translate(2.0077713 5.297358)" id="Path" fill="#7A4930" stroke="none" />
    <path d="M0 12.5667L0 1.93333C0 0.865658 0.865658 0 1.93333 0L21.2667 0C22.3344 0 23.2001 0.865658 23.2001 1.93333L23.2001 12.5667C23.2001 13.6343 22.3344 14.5 21.2667 14.5L1.93333 14.5C0.865658 14.5 0 13.6344 0 12.5667Z" transform="translate(0.48332065 0.48332065)" id="Path" fill="#98EAF9" stroke="none" />
    <path d="M16.5542 0L14.5 0L0 14.5L16.5542 14.5C17.6219 14.5 18.4875 13.6344 18.4875 12.5667L18.4875 1.93333C18.4875 0.865658 17.6219 0 16.5542 0Z" transform="translate(5.195852 0.48332065)" id="Path" fill="#98EAF9" stroke="none" />
    <path d="M0 0L1.93333 0L1.93333 0.966689L0 0.966689L0 0Z" transform="translate(2.4166508 8.216689)" id="Rectangle" fill="#5EB3D1" stroke="none" />
    <path d="M0 0L1.93333 0L1.93333 0.966689L0 0.966689L0 0Z" transform="translate(2.4166508 11.116708)" id="Rectangle" fill="#5EB3D1" stroke="none" />
    <path d="M0 0L1.93333 0L1.93333 0.966689L0 0.966689L0 0Z" transform="translate(11.116708 11.116708)" id="Rectangle" fill="#5EB3D1" stroke="none" />
    <path d="M0 0L1.93333 0L1.93333 0.966689L0 0.966689L0 0Z" transform="translate(5.31667 8.216689)" id="Rectangle" fill="#5EB3D1" stroke="none" />
    <path d="M0 0L1.93333 0L1.93333 0.966689L0 0.966689L0 0Z" transform="translate(8.216689 8.216689)" id="Rectangle" fill="#5EB3D1" stroke="none" />
    <path d="M0 0L1.93333 0L1.93333 0.966689L0 0.966689L0 0Z" transform="translate(11.116708 8.216689)" id="Rectangle" fill="#5EB3D1" stroke="none" />
    <path d="M0 0L0.966689 0L0.966689 1.45001L0 1.45001L0 0Z" transform="translate(20.300037 2.4166508)" id="Rectangle" fill="#5EB3D1" stroke="none" />
    <path d="M0 0L0.966689 0L0.966689 1.45001L0 1.45001L0 0Z" transform="translate(18.366709 2.4166508)" id="Rectangle" fill="#5EB3D1" stroke="none" />
    <path d="M0 0L0.966689 0L0.966689 1.45001L0 1.45001L0 0Z" transform="translate(16.433378 2.4166508)" id="Rectangle" fill="#5EB3D1" stroke="none" />
    <path d="M0 0L0.966689 0L0.966689 1.45001L0 1.45001L0 0Z" transform="translate(14.500048 2.4166508)" id="Rectangle" fill="#5EB3D1" stroke="none" />
    <path d="M0 0L8.70001 0L8.70001 4.83335L0 4.83335L0 0Z" transform="translate(19.816717 23.683378)" id="Rectangle" fill="#C9C9C9" stroke="none" />
    <path d="M3.57429 0.611069C2.75453 -0.205786 1.42781 -0.20336 0.610956 0.616397C-0.178834 1.40909 -0.206375 2.68267 0.548596 3.50866L4.50953 7.82968C3.31909 9.91331 3.36985 12.4827 4.64148 14.5176L4.99285 15.0797L11.2763 15.0797L11.2763 8.313L3.57429 0.611069Z" transform="translate(14.823816 8.603703)" id="Path" fill="#FFD47B" stroke="none" />
    <path d="M0 0L0.966689 0L0.966689 0.966689L0 0.966689L0 0Z" transform="translate(21.266727 25.133387)" id="Rectangle" fill="#6B962A" stroke="none" />
    <path d="M0 3.09333L0 0.773332C0 0.346044 0.346044 0 0.773332 0L3.09333 0C3.52062 0 3.86666 0.346044 3.86666 0.773332L3.86666 3.09333C3.86666 3.52062 3.52062 3.86666 3.09333 3.86666L0.77338 3.86666C0.346092 3.86666 0 3.52057 0 3.09333Z" transform="translate(2.4166508 2.4166985)" id="Path" fill="#FFD47B" stroke="none" />
    <path d="M0 0L1.45001 0L1.45001 0.966689L0 0.966689L0 0Z" transform="translate(2.4166508 3.8666604)" id="Rectangle" fill="#FD7B2F" stroke="none" />
    <path d="M0 0L1.45001 0L1.45001 0.966689L0 0.966689L0 0Z" transform="translate(4.833349 3.8666604)" id="Rectangle" fill="#FD7B2F" stroke="none" />
    <path d="M2.41082 2.89393C2.28272 2.89393 2.15948 2.84318 2.0691 2.75233L0.13577 0.818996C-0.0498337 0.627113 -0.0445063 0.321167 0.147852 0.135564C0.335405 -0.0451879 0.632171 -0.0451879 0.819202 0.135564L2.75253 2.06889C2.94104 2.25787 2.94104 2.56382 2.75253 2.75233C2.66168 2.84318 2.53891 2.89393 2.41082 2.89393Z" transform="translate(23.205893 14.022768)" id="Path" fill="#F2A46F" stroke="none" />
    <path d="M24.1667 5.12046L24.1667 2.41665C24.1653 1.08266 23.084 0.00142699 21.75 0L2.41665 0C1.08266 0.00142699 0.00142699 1.08266 0 2.41665L0 13.05C0.00385287 14.2844 0.939101 15.3163 2.16726 15.4415L3.9841 20.1579C4.46405 21.4035 5.86235 22.0241 7.10787 21.5441L18.4537 17.1738C17.6697 19.2217 17.8925 21.5185 19.0559 23.3774L19.3333 23.8216L19.3333 28.5167C19.3333 28.7835 19.5499 29 19.8167 29L28.5167 29C28.7835 29 29 28.7835 29 28.5167L29 12.5623C28.9957 10.891 28.3301 9.28969 27.1483 8.10743L24.1667 5.12046ZM24.1667 8.01077L25.6337 11.819C25.9213 12.5662 25.5486 13.4053 24.8014 13.6928L23.9628 14.0167C24.0967 13.7122 24.1663 13.383 24.1667 13.05L24.1667 8.01077L24.1667 8.01077ZM0.966689 13.05L0.966689 2.41665C0.966689 1.61578 1.61583 0.966641 2.4167 0.966641L21.7501 0.966641C22.551 0.966641 23.2001 1.61578 23.2001 2.41665L23.2001 5.48872L23.1958 5.48872L23.2001 5.49985L23.2001 13.05C23.1963 13.1341 23.1856 13.2182 23.1672 13.3004L18.7399 8.87258C17.721 7.8774 16.0888 7.89624 15.0936 8.9151C14.1443 9.8866 14.1115 11.4275 15.0182 12.4386L16.9057 14.5L2.41665 14.5C1.61578 14.5 0.966689 13.8509 0.966689 13.05L0.966689 13.05ZM7.15867 15.4667L3.72168 16.7901L3.2132 15.4667L7.15867 15.4667ZM6.7604 20.6422C6.01318 20.9303 5.17411 20.5577 4.88605 19.8104L4.88605 19.8104L4.07067 17.69L9.84022 15.4666L9.84022 15.4638L17.7915 15.4638L18.4199 16.1487L6.7604 20.6422ZM28.0334 28.0334L20.3 28.0334L20.3 24.1667L28.0334 24.1667L28.0334 28.0334ZM28.0334 23.2001L20.0849 23.2001L19.8752 22.8651C18.6968 20.982 18.6499 18.6031 19.7529 16.675C19.8573 16.4923 19.8317 16.2637 19.6896 16.1085L15.7286 11.7875C15.1284 11.1302 15.1743 10.1108 15.8316 9.51006C16.4671 8.92956 17.4469 8.95083 18.0563 9.55839L25.7583 17.2584L26.4417 16.575L24.6534 14.7866L25.1493 14.5933C26.3938 14.1133 27.014 12.716 26.535 11.4709L24.8989 7.22289L26.4649 8.79181C27.4654 9.79185 28.0295 11.1476 28.0333 12.5623L28.0334 23.2001L28.0334 23.2001Z" id="Shape" fill="#000000" stroke="none" />
    <path d="M3.57665 4.8333C4.27074 4.8333 4.8333 4.27069 4.8333 3.57665L4.8333 3.57665L4.8333 1.25665C4.8333 0.562566 4.27069 0 3.57665 0L3.57665 0L1.25665 0C0.562566 0 0 0.562614 0 1.25665L0 1.25665L0 3.57665C0 4.27074 0.562614 4.8333 1.25665 4.8333L1.25665 4.8333L3.57665 4.8333ZM0.966641 3.57665L0.966641 2.89997L1.93328 2.89997L1.93328 1.93328L0.966641 1.93328L0.966641 1.25665C0.966641 1.09669 1.09664 0.966641 1.25665 0.966641L1.25665 0.966641L3.57665 0.966641C3.73661 0.966641 3.86666 1.09664 3.86666 1.25665L3.86666 1.25665L3.86666 1.93328L2.89997 1.93328L2.89997 2.89997L3.86666 2.89997L3.86666 3.57665C3.86666 3.73661 3.73666 3.86666 3.57665 3.86666L3.57665 3.86666L1.25665 3.86666C1.09664 3.86661 0.966641 3.73661 0.966641 3.57665L0.966641 3.57665Z" transform="translate(1.9333777 1.9333777)" id="Shape" fill="#000000" stroke="none" />
    <path d="M0 0L1.93333 0L1.93333 0.966689L0 0.966689L0 0Z" transform="translate(2.4166508 8.216689)" id="Rectangle" fill="#000000" stroke="none" />
    <path d="M0 0L1.93333 0L1.93333 0.966689L0 0.966689L0 0Z" transform="translate(2.4166508 11.116708)" id="Rectangle" fill="#000000" stroke="none" />
    <path d="M0 0L1.93333 0L1.93333 0.966689L0 0.966689L0 0Z" transform="translate(11.116708 11.116708)" id="Rectangle" fill="#000000" stroke="none" />
    <path d="M0 0L1.93333 0L1.93333 0.966689L0 0.966689L0 0Z" transform="translate(5.31667 8.216689)" id="Rectangle" fill="#000000" stroke="none" />
    <path d="M0 0L1.93333 0L1.93333 0.966689L0 0.966689L0 0Z" transform="translate(8.216689 8.216689)" id="Rectangle" fill="#000000" stroke="none" />
    <path d="M0 0L1.93333 0L1.93333 0.966689L0 0.966689L0 0Z" transform="translate(11.116708 8.216689)" id="Rectangle" fill="#000000" stroke="none" />
    <path d="M0 0L0.966689 0L0.966689 1.45001L0 1.45001L0 0Z" transform="translate(20.300037 2.4166508)" id="Rectangle" fill="#000000" stroke="none" />
    <path d="M0 0L0.966689 0L0.966689 1.45001L0 1.45001L0 0Z" transform="translate(18.366709 2.4166508)" id="Rectangle" fill="#000000" stroke="none" />
    <path d="M0 0L0.966689 0L0.966689 1.45001L0 1.45001L0 0Z" transform="translate(16.433378 2.4166508)" id="Rectangle" fill="#000000" stroke="none" />
    <path d="M0 0L0.966689 0L0.966689 1.45001L0 1.45001L0 0Z" transform="translate(14.500048 2.4166508)" id="Rectangle" fill="#000000" stroke="none" />
    <path d="M0 0L0.966689 0L0.966689 0.966689L0 0.966689L0 0Z" transform="translate(21.266727 25.133387)" id="Rectangle" fill="#000000" stroke="none" />
  </g>
</svg>