<?xml version="1.0" encoding="utf-8"?>
<svg width="30px" height="27px" viewBox="0 0 30 27" version="1.1" xmlns:xlink="http://www.w3.org/1999/xlink" xmlns="http://www.w3.org/2000/svg">
  <g id="fast-delivery">
    <path d="M9.99861 18.7221L17.5822 18.7221C18.2101 18.7221 18.7233 18.2089 18.7233 17.5811L18.7233 1.14111C18.7233 0.513281 18.2101 5.85937e-05 17.5822 5.85937e-05L12.0764 5.85937e-05L12.0764 7.02082L9.36082 5.129L6.64693 7.02082L6.64693 0L1.14105 0C0.513223 0 0 0.513223 0 1.14105L0 11.1698C0.886934 10.7762 1.87014 10.5586 2.90156 10.5586C6.85945 10.5586 10.0683 13.7658 10.0683 17.7239C10.0683 18.0627 10.0451 18.3966 9.99861 18.7221Z" transform="translate(10.690782 0.5859375)" id="Path" fill="#FFD47B" fill-rule="evenodd" stroke="none" />
    <path d="M2.71389 5.129L5.42947 7.02082L5.42947 0L0 0L0 7.02082L2.71389 5.129Z" transform="translate(17.337715 0.5859375)" id="Path" fill="#FFF1D8" fill-rule="evenodd" stroke="none" />
    <path d="M4.79332 9.58863C7.44246 9.58863 9.58834 7.44105 9.58834 4.7935C9.58834 2.14594 7.44246 0 4.79332 0C2.14588 0 0 2.14594 0 4.7935C0 7.44105 2.14582 9.58863 4.79332 9.58863Z" transform="translate(8.799082 13.516348)" id="Path" fill="#FFFFFF" fill-rule="evenodd" stroke="none" />
    <path d="M7.16514 14.3323C10.7842 14.3323 13.7771 11.6482 14.2621 8.16352C14.3087 7.83797 14.3319 7.5041 14.3319 7.16531C14.3319 3.2073 11.1231 0 7.16514 0C6.13371 0 5.15045 0.217559 4.26357 0.61125C3.41654 0.986602 2.65582 1.52309 2.01803 2.17916C1.33371 2.88504 0.793945 3.73213 0.445137 4.67221C0.157793 5.44951 0 6.28828 0 7.16525C0 8.04223 0.157793 8.88264 0.445137 9.6583C0.793945 10.5984 1.33371 11.4455 2.01803 12.1513C3.3218 13.4951 5.14547 14.3323 7.16514 14.3323L7.16514 14.3323ZM11.9601 7.16531C11.9601 9.81287 9.81422 11.9604 7.16508 11.9604C4.51764 11.9604 2.37176 9.81287 2.37176 7.16531C2.37176 4.51775 4.51764 2.37182 7.16508 2.37182C9.81428 2.37182 11.9601 4.51775 11.9601 7.16531Z" transform="translate(6.4272656 11.144531)" id="Shape" fill="#98EAF9" fill-rule="evenodd" stroke="none" />
    <g id="Group" transform="matrix(1 0 0 1 1.6653345E-15 0)">
      <path d="M5.37926 0C2.41313 0 0 2.41318 0 5.37943C0 8.34656 2.41313 10.7604 5.37926 10.7604C8.34633 10.7604 10.7602 8.3465 10.7602 5.37943C10.7602 2.41318 8.34627 1.66533e-15 5.37926 1.66533e-15L5.37926 0ZM5.37926 9.58857C3.0593 9.58857 1.17188 7.70033 1.17188 5.37943C1.17188 3.05941 3.0593 1.17188 5.37926 1.17188C7.70016 1.17188 9.58834 3.05936 9.58834 5.37943C9.58834 7.70039 7.70016 9.58857 5.37926 9.58857L5.37926 9.58857Z" transform="translate(8.213144 12.93041)" id="Shape" fill="#000000" stroke="none" />
      <path d="M2.27174 2.42496L1.17188 2.42496L1.17188 0.585938C1.17188 0.262324 0.909492 0 0.585938 0C0.262383 0 0 0.262324 0 0.585938L0 3.0109C0 3.33451 0.262383 3.59684 0.585938 3.59684L2.27174 3.59684C2.59529 3.59684 2.85768 3.33451 2.85768 3.0109C2.85768 2.68728 2.59535 2.42496 2.27174 2.42496Z" transform="translate(13.006465 15.298945)" id="Path" fill="#000000" stroke="none" />
      <path d="M28.273 1.249e-15L11.8318 1.249e-15C10.8796 1.249e-15 10.1048 0.774727 10.1048 1.72705L10.1048 11.3889C9.40629 11.7424 8.7685 12.1989 8.21074 12.7378L5.83605 12.7378C5.5125 12.7378 5.25012 13.0001 5.25012 13.3237C5.25012 13.6474 5.5125 13.9097 5.83605 13.9097L7.21582 13.9097C6.92977 14.3229 6.68303 14.765 6.48059 15.2309L3.6951 15.2309C3.37154 15.2309 3.10916 15.4932 3.10916 15.8168C3.10916 16.1404 3.37154 16.4027 3.6951 16.4027L6.07887 16.4027C5.97029 16.8302 5.89764 17.2717 5.86365 17.7239L0.585938 17.7239C0.262383 17.7239 0 17.9862 0 18.3098C0 18.6335 0.262383 18.8958 0.585938 18.8958L5.86336 18.8958C5.89729 19.348 5.97035 19.7895 6.07887 20.217L3.6951 20.217C3.37154 20.217 3.10916 20.4793 3.10916 20.8029C3.10916 21.1265 3.37154 21.3888 3.6951 21.3888L6.47947 21.3888C6.6818 21.8546 6.92854 22.2968 7.21436 22.71L5.83605 22.71C5.5125 22.71 5.25012 22.9723 5.25012 23.2959C5.25012 23.6196 5.5125 23.8819 5.83605 23.8819L8.20887 23.8819C9.60422 25.2311 11.5029 26.0627 13.5924 26.0627C17.3245 26.0627 20.4489 23.4117 21.1821 19.8939L28.273 19.8939C29.2253 19.8939 30 19.1192 30 18.1669L30 1.72705C30 0.774727 29.2253 0 28.273 0L28.273 1.249e-15ZM17.9236 1.17188L22.1812 1.17188L22.1812 6.48445L20.3865 5.23418C20.1851 5.09391 19.9178 5.09396 19.7164 5.23424L17.9235 6.48404L17.9235 1.17188L17.9236 1.17188ZM13.5924 24.8909C9.96463 24.8909 7.01326 21.9386 7.01326 18.3098C7.01326 14.682 9.96463 11.7305 13.5924 11.7305C17.2211 11.7305 20.1732 14.682 20.1732 18.3098C20.1732 21.9386 17.2211 24.8909 13.5924 24.8909L13.5924 24.8909ZM28.8281 18.167C28.8281 18.4731 28.5791 18.7221 28.273 18.7221L21.3341 18.7221C21.3413 18.5856 21.3451 18.4481 21.3451 18.3098C21.3451 14.0358 17.8673 10.5586 13.5925 10.5586C12.7862 10.5586 12.0084 10.6825 11.2768 10.912L11.2768 1.72705C11.2768 1.42096 11.5258 1.17188 11.8319 1.17188L16.7518 1.17188L16.7518 7.60676C16.7518 7.82502 16.8731 8.02523 17.0667 8.12619C17.2601 8.22721 17.4937 8.21227 17.6729 8.0874L20.0518 6.42908L22.4324 8.08752C22.5325 8.1573 22.6496 8.1927 22.7674 8.1927C22.8601 8.1927 22.9532 8.17072 23.0385 8.12619C23.232 8.02518 23.3532 7.82502 23.3532 7.60676L23.3532 1.17188L28.2732 1.17188C28.5793 1.17188 28.8283 1.4209 28.8283 1.72705L28.8283 18.167L28.8281 18.167Z" transform="matrix(1 0 0 1 1.6653345E-15 0)" id="Shape" fill="#000000" stroke="none" />
      <path d="M0.585937 1.17188L1.58414 1.17188C1.9077 1.17188 2.17008 0.909551 2.17008 0.585938C2.17008 0.262324 1.9077 0 1.58414 0L0.585937 0C0.262383 0 0 0.262324 0 0.585938C0 0.909551 0.262383 1.17188 0.585937 1.17188L0.585937 1.17188Z" transform="translate(1.8551953 12.737754)" id="Path" fill="#000000" stroke="none" />
      <path d="M1.58414 0L0.585937 0C0.262383 0 0 0.262324 0 0.585938C0 0.909551 0.262383 1.17188 0.585937 1.17188L1.58414 1.17188C1.9077 1.17188 2.17008 0.909551 2.17008 0.585938C2.17008 0.262324 1.90775 0 1.58414 0L1.58414 0Z" transform="translate(1.8551953 22.710058)" id="Path" fill="#000000" stroke="none" />
    </g>
  </g>
</svg>