<?xml version="1.0" encoding="utf-8"?>
<svg width="29px" height="22px" viewBox="0 0 29 22" version="1.1" xmlns:xlink="http://www.w3.org/1999/xlink" xmlns="http://www.w3.org/2000/svg">
  <g id="scooter">
    <path d="M4.19141 0L0.847839 0C0.379669 0 0 0.379669 0 0.847839L0 1.87113C0 2.3393 0.379669 2.71897 0.847839 2.71897L4.19141 2.71897C4.65958 2.71897 5.03925 2.3393 5.03925 1.87113L5.03925 0.847839C5.03925 0.379669 4.65958 0 4.19141 0Z" transform="translate(17.956848 1.9833069)" id="Path" fill="#FFC15A" stroke="none" />
    <path d="M0.90625 0L2.72052 0L2.72052 1.8125L0.90625 1.8125C0.405777 1.8125 0 1.40694 0 0.90625C0 0.405777 0.405777 0 0.90625 0Z" transform="translate(15.236328 2.889557)" id="Path" fill="#AAC0C1" stroke="none" />
    <path d="M5.4375 2.71875C5.4375 4.22017 4.22017 5.4375 2.71875 5.4375C1.21733 5.4375 0 4.22017 0 2.71875C0 1.21711 1.21733 0 2.71875 0C4.22017 0 5.4375 1.21711 5.4375 2.71875Z" transform="translate(21.75 15.85849)" id="Path" fill="#AAC0C1" stroke="none" />
    <path d="M27.8672 12.0609L19.8399 12.0609C19.4452 12.7618 18.7034 13.1955 17.8991 13.1955L0 13.1955L0 12.7674C0 8.31268 3.61128 4.70139 8.06598 4.70139L12.0837 4.70139C12.7143 4.70139 13.2254 5.21249 13.2254 5.84306L13.2254 10.9299L16.2395 10.9299C17.2628 10.9299 18.2055 10.3736 18.7005 9.47779C18.9299 9.0625 19.0507 8.59566 19.0512 8.12107L19.0593 0L21.0701 0L22.637 7.07919L22.8852 7.07919C25.6367 7.07919 27.8672 9.30964 27.8672 12.0609Z" transform="translate(0.5737076 4.702057)" id="Path" fill="#FFC15A" stroke="none" />
    <path d="M5.4375 2.71875C5.4375 4.22017 4.22017 5.4375 2.71875 5.4375C1.21733 5.4375 0 4.22017 0 2.71875C0 1.21711 1.21733 0 2.71875 0C4.22017 0 5.4375 1.21711 5.4375 2.71875Z" transform="translate(4.3046875 15.85849)" id="Path" fill="#AAC0C1" stroke="none" />
    <path d="M8.38591 4.19318C8.38591 1.87733 6.5088 0 4.19296 0C3.21679 0 2.3185 0.333649 1.60585 0.893196C1.60563 0.893417 1.60541 0.893639 1.60519 0.893639C0.627693 1.66138 0 2.85394 0 4.19318L8.38591 4.19318Z" transform="translate(2.8304825 13.704376)" id="Path" fill="#FFE6C0" stroke="none" />
    <path d="M2.26563 2.26563L1.13281 2.26563C0.507111 2.26563 0 1.75851 0 1.13281C0 0.507111 0.507111 0 1.13281 0L2.26563 0L2.26563 2.26563Z" transform="translate(22.996094 2.1890717)" id="Path" fill="#EFF3F3" stroke="none" />
    <path d="M4.75693 0L8.41069 0C9.03639 0 9.5435 0.507111 9.5435 1.13281L9.5435 7.70313C9.5435 8.32861 9.03639 8.83594 8.41069 8.83594L1.13281 8.83594C0.507111 8.83594 0 8.32861 0 7.70313L0 4.75671C0 2.12955 2.12978 0 4.75693 0Z" transform="translate(0.56640625 0.5666275)" id="Path" fill="#FF6977" stroke="none" />
    <path d="M3.2002 2.26563L1.13281 2.26563C0.507332 2.26563 0 1.75829 0 1.13281C0 0.507111 0.507332 0 1.13281 0L3.2002 0C3.8259 0 4.33301 0.507111 4.33301 1.13281C4.33301 1.75829 3.8259 2.26563 3.2002 2.26563Z" transform="translate(10.109909 7.13694)" id="Path" fill="#AAC0C1" stroke="none" />
    <path d="M0.566406 0C0.417282 0 0.271255 0.0606232 0.165939 0.165939C0.0606231 0.271256 0 0.417503 0 0.566406C0 0.715309 0.0606231 0.861557 0.165939 0.966873C0.271255 1.07219 0.417282 1.13281 0.566406 1.13281C0.715309 1.13281 0.861336 1.07219 0.966873 0.966873C1.07219 0.861557 1.13281 0.715973 1.13281 0.566406C1.13281 0.417503 1.07219 0.271256 0.966873 0.165939C0.861336 0.0606232 0.715309 0 0.566406 0Z" transform="translate(11.81134 20.727814)" id="Path" fill="#000000" stroke="none" />
    <path d="M23.6592 11.2186L22.3392 5.25519C22.6954 5.20695 23.0096 5.02575 23.2306 4.76334C23.4915 4.92641 23.7992 5.0211 24.1289 5.0211L25.2617 5.0211C25.5746 5.0211 25.8281 4.76755 25.8281 4.4547L25.8281 2.18907C25.8281 1.87622 25.5746 1.62267 25.2617 1.62267L24.1289 1.62267C23.7895 1.62267 23.4731 1.72311 23.2074 1.89547C22.9481 1.60231 22.5695 1.4169 22.1483 1.4169L18.8047 1.4169C18.204 1.4169 17.6898 1.79369 17.4851 2.32315L16.1426 2.32315C15.3306 2.32315 14.6699 2.98381 14.6699 3.79581C14.6699 4.6078 15.3306 5.26846 16.1426 5.26846L19.058 5.26846L19.058 6.4099C19.058 6.72276 19.3116 6.97631 19.6244 6.97631C19.9373 6.97631 20.1908 6.72276 20.1908 6.4099L20.1908 5.26846L21.182 5.26846L22.6038 11.6925L19.9129 16.4853C19.6189 17.007 19.0644 17.3311 18.4655 17.3311L11.7481 17.3311C11.4669 14.9728 9.45611 13.138 7.02344 13.138C5.94704 13.138 4.9315 13.4887 4.08653 14.152C4.08543 14.1529 4.08432 14.1537 4.08321 14.1546C3.07718 14.9458 2.44484 16.0813 2.29749 17.3311L1.13414 17.3311C1.20804 13.2592 4.54342 9.96964 8.63239 9.96964L12.6503 9.96964C12.9674 9.96964 13.2256 10.2278 13.2256 10.5451L13.2256 15.6319C13.2256 15.9448 13.4791 16.1983 13.792 16.1983L16.8059 16.1983C18.0354 16.1983 19.1684 15.5297 19.7627 14.4538C20.0377 13.9559 20.1835 13.3922 20.184 12.8238L20.1869 10.942C20.1873 10.6292 19.934 10.3752 19.6211 10.3747C19.6209 10.3747 19.6207 10.3747 19.6204 10.3747C19.308 10.3747 19.0545 10.6279 19.054 10.9403L19.0512 12.8225C19.0509 13.2004 18.954 13.5752 18.7713 13.9059C18.3761 14.621 17.623 15.0653 16.8059 15.0653L14.3584 15.0653L14.3584 10.5449C14.3584 10.2548 14.2854 9.98136 14.1573 9.74174C14.6662 9.4477 15.0095 8.89811 15.0095 8.26953C15.0095 7.33253 14.2471 6.57031 13.3103 6.57031L11.2429 6.57031C11.0443 6.57031 10.8538 6.60483 10.6765 6.66766L10.6765 1.69922C10.6765 0.762215 9.9141 0 8.97732 0L5.32333 0C2.6745 0 0.47171 1.94481 0.0668183 4.48125C0.0497818 4.53523 0.0404892 4.59254 0.0404892 4.65205C0.0404892 4.65559 0.0409317 4.65891 0.0409317 4.66223C0.0139389 4.87906 0 5.09965 0 5.32333L0 8.26975C0 9.12047 0.628578 9.82715 1.44566 9.94994L2.69994 11.2042C1.03812 12.7787 6.91721e-17 15.0049 6.91721e-17 17.4694L6.91721e-17 17.8976C6.91721e-17 18.2104 0.253555 18.464 0.566406 18.464L3.74957 18.464C3.74226 18.5005 3.73828 18.5385 3.73828 18.5772C3.73828 19.3992 4.0425 20.1512 4.54342 20.7278L0.566406 20.7278C0.253555 20.7278 6.91721e-17 20.9816 6.91721e-17 21.2942C6.91721e-17 21.6071 0.253555 21.8606 0.566406 21.8606L6.95795 21.8606C6.97985 21.8613 7.00153 21.8624 7.02344 21.8624C8.83483 21.8624 10.3086 20.3886 10.3086 18.5772C10.3086 18.5385 10.3046 18.5005 10.2973 18.464L18.4655 18.464C19.3574 18.464 20.1908 18.0365 20.7132 17.3294L21.4305 17.3294C21.2692 17.7219 21.1836 18.1449 21.1836 18.5772C21.1836 19.3992 21.4878 20.1512 21.9887 20.7278L14.6434 20.7278C14.3305 20.7278 14.077 20.9816 14.077 21.2942C14.077 21.6071 14.3305 21.8606 14.6434 21.8606L24.4033 21.8606C24.4252 21.8613 24.4468 21.8624 24.4688 21.8624C26.2801 21.8624 27.7539 20.3886 27.7539 18.5772C27.7539 18.1449 27.6683 17.7219 27.507 17.3294L28.4336 17.3294C28.7464 17.3294 29 17.0758 29 16.763C29 13.7732 26.6226 11.3281 23.6592 11.2186L23.6592 11.2186ZM11.2429 7.70335L13.3103 7.70335C13.6225 7.70335 13.8767 7.95734 13.8767 8.26975C13.8767 8.58194 13.6225 8.83616 13.3103 8.83616L11.2429 8.83616C10.9305 8.83616 10.6765 8.58194 10.6765 8.26975C10.6765 7.95734 10.9305 7.70335 11.2429 7.70335ZM1.13281 5.32333C1.13281 5.28838 1.13458 5.25364 1.13547 5.21868L7.33341 5.21868C7.64626 5.21868 7.89982 4.96513 7.89982 4.65228C7.89982 4.33942 7.64626 4.08587 7.33341 4.08587L1.31955 4.08587C1.84879 2.37736 3.44335 1.13303 5.32333 1.13303L8.9771 1.13303C9.28951 1.13303 9.5435 1.38703 9.5435 1.69944L9.5435 8.26975C9.5435 8.58194 9.28951 8.83616 8.9771 8.83616L1.69944 8.83616C1.69944 8.83616 1.69922 8.83616 1.699 8.83616C1.38681 8.83616 1.13281 8.58194 1.13281 8.26975L1.13281 5.32333ZM3.06678 9.96897L4.36288 9.96897C4.09074 10.1243 3.82811 10.2944 3.57544 10.4776L3.06678 9.96897ZM9.17578 18.5772C9.17578 19.7567 8.22196 20.7172 7.04534 20.7289C7.03804 20.7287 7.03074 20.7278 7.02344 20.7278L6.95817 20.7278C5.80146 20.6931 4.87109 19.7421 4.87109 18.5772C4.87109 18.5385 4.86711 18.5005 4.85981 18.464L9.18707 18.464C9.17976 18.5005 9.17578 18.5385 9.17578 18.5772L9.17578 18.5772ZM3.44048 17.3311C3.58075 16.4313 4.05334 15.6184 4.78326 15.0452C4.78503 15.0441 4.78658 15.0425 4.78835 15.0414C5.4313 14.5374 6.20414 14.2708 7.02344 14.2708C8.83063 14.2708 10.3332 15.5994 10.606 17.3311L3.44048 17.3311ZM24.1289 2.75548L24.6953 2.75548L24.6953 3.88829L24.1289 3.88829C23.8165 3.88829 23.5625 3.63429 23.5625 3.32188C23.5625 3.0097 23.8165 2.75548 24.1289 2.75548ZM15.8027 3.79581C15.8027 3.60841 15.9552 3.45596 16.1426 3.45596L17.3904 3.45596L17.3904 3.85422C17.3904 3.95068 17.4002 4.04472 17.4185 4.13565L16.1426 4.13565C15.9552 4.13565 15.8027 3.98321 15.8027 3.79581ZM19.6244 4.13565L18.8047 4.13565C18.6496 4.13565 18.5233 4.00954 18.5233 3.85422L18.5233 2.83115C18.5233 2.67605 18.6496 2.54971 18.8047 2.54971L22.1483 2.54971C22.3034 2.54971 22.4297 2.67605 22.4297 2.83115L22.4297 3.85422C22.4297 4.00954 22.3034 4.13565 22.1483 4.13565L19.6244 4.13565ZM26.6211 18.5772C26.6211 19.7567 25.6673 20.7172 24.4907 20.7289C24.4834 20.7287 24.4761 20.7278 24.4688 20.7278L24.4035 20.7278C23.2468 20.6931 22.3164 19.7421 22.3164 18.5772C22.3164 18.1272 22.4567 17.6922 22.7151 17.3294L26.2224 17.3294C26.4808 17.6922 26.6211 18.1272 26.6211 18.5772L26.6211 18.5772ZM21.3741 16.1966L23.534 12.3496C25.7396 12.3901 27.5557 14.0551 27.8309 16.1966L21.3741 16.1966Z" id="Shape" fill="#000000" stroke="none" />
    <path d="M0.567513 1.13281C0.880363 1.13281 1.13392 0.879257 1.13392 0.566406C1.13392 0.253555 0.880363 0 0.567513 0L0.565521 0C0.25267 0 0 0.253555 0 0.566406C0 0.879257 0.254662 1.13281 0.567513 1.13281L0.567513 1.13281Z" transform="translate(19.056915 8.109123)" id="Path" fill="#000000" stroke="none" />
  </g>
</svg>