<?xml version="1.0" encoding="utf-8"?>
<svg width="106px" height="39px" viewBox="0 0 106 39" version="1.1" xmlns:xlink="http://www.w3.org/1999/xlink" xmlns="http://www.w3.org/2000/svg">
  <defs>
    <path d="M0 0L104.751 0L104.751 36.9314L0 36.9314L0 0Z" transform="translate(0 0.4500604)" id="path_1" />
    <clipPath id="mask_1">
      <use xlink:href="#path_1" />
    </clipPath>
  </defs>
  <g id="App-store">
    <path d="M84.5937 2.68438C83.8987 2.68438 83.6055 3.3102 83.56 3.76329L85.5176 3.76329C85.5273 3.35531 85.3433 2.68438 84.5937 2.68438L84.5937 2.68438ZM40.8324 5.10515C40.8324 5.54084 41.1165 5.74064 41.4728 5.74064C41.9305 5.74064 42.2504 5.45061 42.3602 5.13287C42.3876 5.05101 42.3876 4.96916 42.3876 4.88731L42.3876 4.28083C41.5918 4.27116 40.8324 4.43422 40.8324 5.10515L40.8324 5.10515ZM62.4842 2.72949C61.6884 2.72949 61.3679 3.50033 61.3679 4.23442C61.3679 5.08775 61.7977 5.73162 62.4751 5.73162C63.1155 5.73162 63.5634 5.11482 63.5634 4.21702C63.5634 3.5274 63.2527 2.72949 62.4842 2.72949L62.4842 2.72949ZM54.925 2.68438C54.23 2.68438 53.9374 3.3102 53.8912 3.76329L55.8488 3.76329C55.8579 3.35531 55.6752 2.68438 54.925 2.68438L54.925 2.68438ZM46.8261 2.79266C46.369 2.79266 45.9484 3.11942 45.8294 3.60925C45.8106 3.6911 45.7917 3.79036 45.7917 3.89928L45.7917 4.61597C45.7917 4.7062 45.8015 4.79708 45.8197 4.87893C45.9387 5.33202 46.332 5.65879 46.817 5.65879C47.5218 5.65879 47.9515 5.10515 47.9515 4.208C47.9515 3.42814 47.5757 2.79266 46.8261 2.79266L46.8261 2.79266ZM86.5507 17.2155L80.7839 17.2155C80.8066 18.0611 81.0855 18.7056 81.6212 19.1522C82.1063 19.5531 82.7343 19.7529 83.506 19.7529C84.3623 19.7529 85.1372 19.6182 85.8374 19.3443L86.1404 20.6687C85.3245 21.0245 84.3558 21.1972 83.2375 21.1972C81.8995 21.1972 80.8463 20.808 80.0817 20.0262C79.3171 19.2444 78.9309 18.1945 78.9309 16.8784C78.9309 15.5829 79.2892 14.5092 79.9991 13.6468C80.7501 12.7303 81.7584 12.2727 83.0256 12.2727C84.2751 12.2727 85.2166 12.7303 85.855 13.6468C86.3641 14.3783 86.6202 15.2787 86.6202 16.3493C86.6202 16.6883 86.5955 16.9764 86.5507 17.2155L86.5507 17.2155ZM78.6182 3.79036L78.6182 6.43864L77.4935 6.43864L77.4935 0L78.6182 0L78.6182 2.62057L78.6364 2.62057C78.7736 2.4124 78.9661 2.24031 79.1943 2.12237C79.4231 1.99475 79.6884 1.92257 79.9725 1.92257C80.7318 1.92257 81.5276 2.42077 81.5276 3.83612L81.5276 6.43864L80.4022 6.43864L80.4022 3.95406C80.4022 3.31922 80.1643 2.82939 79.5421 2.82939C79.1032 2.82939 78.7918 3.11942 78.6644 3.45521C78.6273 3.55511 78.6182 3.67241 78.6182 3.79036L78.6182 3.79036ZM78.3263 14.1412C78.1371 14.1076 77.9336 14.0928 77.7217 14.0928C77.0455 14.0928 76.5248 14.3461 76.1555 14.8501C75.8343 15.2981 75.675 15.8549 75.675 16.542L75.675 21.04L73.7532 21.04L73.7532 15.1627C73.7532 14.1805 73.7363 13.2801 73.7018 12.4661L75.374 12.4661L75.4462 14.1076L75.4988 14.1076C75.6991 13.545 76.0183 13.0906 76.4591 12.7516C76.8869 12.4429 77.3511 12.294 77.8491 12.294C78.0253 12.294 78.1872 12.3037 78.3263 12.3262L78.3263 14.1412ZM73.393 2.02247L74.0243 2.02247L74.0243 1.19685L75.1315 0.888133L75.1315 2.02247L76.2016 2.02247L76.2016 2.85646L75.1315 2.85646L75.1315 4.8061C75.1315 5.35071 75.2778 5.62269 75.7075 5.62269C75.9091 5.62269 76.0189 5.61303 76.147 5.57693L76.1652 6.41995C76.0001 6.48376 75.6984 6.53854 75.3512 6.53854C74.9306 6.53854 74.5912 6.40255 74.3812 6.17568C74.1342 5.92175 74.0243 5.51377 74.0243 4.93307L74.0243 2.85646L73.393 2.85646L73.393 2.02247ZM71.4075 19.9321C70.6097 20.7996 69.5539 21.234 68.2406 21.234C66.9689 21.234 65.954 20.8176 65.2018 19.9823C64.4496 19.149 64.0738 18.092 64.0738 16.8236C64.0738 15.4959 64.4613 14.4067 65.2382 13.5611C66.0171 12.7116 67.0606 12.2934 68.3778 12.2934C69.6521 12.2934 70.6708 12.7071 71.4419 13.5463C72.1753 14.3526 72.5439 15.4025 72.5439 16.6838C72.5439 18.005 72.1668 19.082 71.4075 19.9321L71.4075 19.9321ZM62.4387 6.53854C61.1852 6.53854 60.2061 5.68586 60.2061 4.26214C60.2061 2.81135 61.167 1.92257 62.5115 1.92257C63.8378 1.92257 64.7253 2.84744 64.7253 4.18931C64.7253 5.81282 63.5726 6.53854 62.4387 6.53854L62.4387 6.53854ZM63.5225 13.8937L61.4011 13.8937L61.4011 18.0611C61.4011 19.1187 61.7775 19.6433 62.5258 19.6433C62.8697 19.6433 63.1519 19.6182 63.3788 19.5608L63.4334 21.0039C63.0531 21.145 62.5564 21.2159 61.9387 21.2159C61.1833 21.2159 60.5858 20.9897 60.1606 20.5282C59.7295 20.0719 59.5169 19.2998 59.5169 18.2183L59.5169 13.8937L58.2544 13.8937L58.2544 12.4661L59.5169 12.4661L59.5169 10.8967L61.4011 10.3321L61.4011 12.4661L63.5225 12.4661L63.5225 13.8937ZM56.7473 20.1751C55.9619 20.8698 54.8743 21.2146 53.479 21.2146C52.1853 21.2146 51.1515 20.9665 50.37 20.4754L50.8167 18.888C51.6586 19.3791 52.5831 19.6285 53.5896 19.6285C54.3164 19.6285 54.8782 19.4648 55.2819 19.1438C55.683 18.8216 55.8852 18.3898 55.8852 17.8426C55.8852 17.3663 55.7188 16.9602 55.3885 16.6296C55.053 16.3003 54.5063 15.9967 53.7339 15.7125C51.6365 14.9384 50.5852 13.8028 50.5852 12.3101C50.5852 11.333 50.9519 10.5319 51.6944 9.90868C52.4362 9.28737 53.4179 8.97478 54.6415 8.97478C55.7318 8.97478 56.6401 9.16427 57.365 9.53808L56.88 11.0907C56.2038 10.7272 55.4353 10.5429 54.5784 10.5429C53.901 10.5429 53.3698 10.7137 52.9875 11.0353C52.6683 11.333 52.5071 11.6927 52.5071 12.1148C52.5071 12.5815 52.6917 12.9714 53.0584 13.2814C53.3796 13.5624 53.9614 13.8672 54.8008 14.1953C55.8365 14.6039 56.5932 15.0892 57.0815 15.6435C57.5665 16.1965 57.811 16.8829 57.811 17.7053C57.811 18.7172 57.454 19.5428 56.7473 20.1751L56.7473 20.1751ZM47.0732 6.53854C46.4965 6.53854 45.9842 6.32134 45.6643 5.77673L45.6461 5.77673L45.5915 6.43864L44.6306 6.43864C44.6494 6.13895 44.6676 5.64976 44.6676 5.19603L44.6676 0L45.7917 0L45.7917 2.6296L45.8106 2.6296C46.0849 2.20358 46.5699 1.92257 47.2376 1.92257C48.3266 1.92257 49.1036 2.82037 49.0945 4.16224C49.0945 5.74966 48.0796 6.53854 47.0732 6.53854L47.0732 6.53854ZM45.7534 20.108C45.0369 20.8576 44.1501 21.234 43.0871 21.234C41.9422 21.234 41.1198 20.8292 40.6198 20.0152L40.6198 24.5178L38.6973 24.5178L38.6973 15.2839C38.6973 14.3667 38.6726 13.429 38.6265 12.4661L40.3129 12.4661L40.4241 13.8241L40.4566 13.8241C41.1016 12.8045 42.0716 12.2934 43.3764 12.2934C44.3972 12.2934 45.2482 12.6897 45.9302 13.4921C46.6142 14.29 46.9542 15.3451 46.9542 16.6489C46.9542 18.112 46.555 19.2599 45.7534 20.108L45.7534 20.108ZM37.1272 6.43864L38.2513 6.43864L38.2513 0.000644509L37.1272 0.000644509L37.1272 6.43864ZM36.2515 20.108C35.537 20.8576 34.6463 21.234 33.5859 21.234C32.4377 21.234 31.6166 20.8292 31.1166 20.0152L31.1166 24.5178L29.1961 24.5178L29.1961 15.2839C29.1961 14.3667 29.1714 13.429 29.1226 12.4661L30.813 12.4661L30.919 13.8241L30.9528 13.8241C31.5964 12.8045 32.5684 12.2934 33.8745 12.2934C34.8953 12.2934 35.7437 12.6897 36.4303 13.4921C37.1103 14.29 37.4523 15.3451 37.4523 16.6489C37.4523 18.112 37.0531 19.2599 36.2515 20.108L36.2515 20.108ZM28.726 5.2231C28.726 4.11712 29.7234 3.54544 31.3702 3.55511L31.3702 3.48228C31.3702 3.19225 31.2506 2.71145 30.4639 2.71145C30.0244 2.71145 29.568 2.84744 29.2657 3.03821L29.0466 2.3125C29.3749 2.1127 29.9516 1.92257 30.6563 1.92257C32.0827 1.92257 32.4949 2.82037 32.4949 3.79036L32.4949 5.37778C32.4949 5.77673 32.5131 6.16666 32.5684 6.43864L31.5522 6.43864L31.4703 5.94881L31.443 5.94881C31.1777 6.29363 30.7109 6.53854 30.1258 6.53854C29.2293 6.53854 28.726 5.89468 28.726 5.2231L28.726 5.2231ZM26.4102 6.43864L25.303 6.43864L23.6471 2.02247L24.8642 2.02247L25.5858 4.26214C25.7146 4.65206 25.8056 5.0059 25.8882 5.36876L25.9161 5.36876C25.998 5.0059 26.0988 4.66044 26.2178 4.26214L26.9316 2.02247L28.1117 2.02247L26.4102 6.43864ZM25.9733 21.04L24.8531 17.55L20.9548 17.55L19.886 21.04L17.8946 21.04L21.7532 9.15009L24.1406 9.15009L28.0213 21.04L25.9733 21.04ZM12.3924 20.5933C12.3924 21.6703 11.5069 22.543 10.4212 22.543L1.97254 22.543C0.885499 22.543 0 21.6703 0 20.5933L0 1.98186C0 0.90489 0.885499 0.0296474 1.97254 0.0296474L10.4212 0.0296474C11.5069 0.0296474 12.3924 0.90489 12.3924 1.98186L12.3924 20.5933ZM19.8854 0.326121L21.3215 0.326121L23.3246 6.43864L22.1082 6.43864L21.5504 4.7062L19.6012 4.7062L19.0707 6.43864L17.9089 6.43864L19.8854 0.326121ZM34.2354 6.43864L35.3595 6.43864L35.3595 2.02247L34.2354 2.02247L34.2354 6.43864ZM34.8023 0.181107C35.1865 0.181107 35.4245 0.444711 35.4336 0.788879C35.4336 1.115 35.1865 1.38763 34.7926 1.38763C34.4174 1.38763 34.171 1.115 34.171 0.788879C34.171 0.444711 34.4272 0.181107 34.8023 0.181107L34.8023 0.181107ZM41.4546 2.71145C41.0157 2.71145 40.5587 2.84744 40.257 3.03821L40.0373 2.3125C40.3662 2.1127 40.9423 1.92257 41.6464 1.92257C43.0741 1.92257 43.4856 2.82037 43.4856 3.79036L43.4856 5.37778C43.4856 5.77673 43.5039 6.16666 43.5585 6.43864L42.5429 6.43864L42.461 5.94881L42.4337 5.94881C42.1685 6.29363 41.7016 6.53854 41.1165 6.53854C40.2193 6.53854 39.7168 5.89468 39.7168 5.2231C39.7168 4.11712 40.7134 3.54544 42.3602 3.55511L42.3602 3.48228C42.3602 3.19225 42.2406 2.71145 41.4546 2.71145L41.4546 2.71145ZM50.3778 6.438L51.5019 6.438L51.5019 0L50.3778 0L50.3778 6.438ZM54.9893 1.92257C56.434 1.92257 56.9105 3.10138 56.9105 4.07201C56.9105 4.28083 56.8923 4.44389 56.8735 4.54314L53.8912 4.54314C53.9185 5.34104 54.5407 5.68586 55.2637 5.68586C55.7845 5.68586 56.1505 5.60465 56.4983 5.48606L56.6628 6.24851C56.2786 6.41093 55.7487 6.52887 55.1077 6.52887C53.663 6.52887 52.812 5.64976 52.812 4.29887C52.812 3.07366 53.5623 1.92257 54.9893 1.92257L54.9893 1.92257ZM66.8044 2.02247L66.859 2.68438L66.887 2.68438C67.0872 2.33957 67.5723 1.92257 68.3134 1.92257C69.091 1.92257 69.8965 2.42077 69.8965 3.81742L69.8965 6.43864L68.7711 6.43864L68.7711 3.94439C68.7711 3.3102 68.5332 2.82939 67.9201 2.82939C67.4721 2.82939 67.1614 3.14649 67.0417 3.48228C67.0047 3.57316 66.9871 3.70915 66.9871 3.83612L66.9871 6.43864L65.8617 6.43864L65.8617 3.33727C65.8617 2.82939 65.8435 2.40337 65.8253 2.02247L66.8044 2.02247ZM84.6581 1.92257C86.1027 1.92257 86.5793 3.10138 86.5793 4.07201C86.5793 4.28083 86.5604 4.44389 86.5422 4.54314L83.56 4.54314C83.5873 5.34104 84.2095 5.68586 84.9324 5.68586C85.4532 5.68586 85.8199 5.60465 86.1671 5.48606L86.3316 6.24851C85.9473 6.41093 85.4174 6.52887 84.7764 6.52887C83.3318 6.52887 82.4807 5.64976 82.4807 4.29887C82.4807 3.07366 83.2304 1.92257 84.6581 1.92257L84.6581 1.92257ZM20.8827 2.35761C20.7631 1.98573 20.6629 1.56873 20.5713 1.21554L20.5524 1.21554C20.4614 1.56873 20.3606 1.99475 20.2598 2.35761L19.7846 3.86318L21.367 3.86318L20.8827 2.35761ZM31.3702 5.13287C31.3968 5.05101 31.3968 4.96916 31.3968 4.88731L31.3968 4.28083C30.6011 4.27116 29.8423 4.43422 29.8423 5.10515C29.8423 5.54084 30.1258 5.74064 30.4827 5.74064C30.9398 5.74064 31.2597 5.45061 31.3702 5.13287L31.3702 5.13287ZM82.8832 13.594C82.2558 13.594 81.7461 13.8595 81.3534 14.3738C81.0329 14.7837 80.8417 15.2787 80.7839 15.8523L84.7875 15.8523C84.7972 15.2897 84.6756 14.8037 84.4156 14.3893C84.0814 13.8627 83.5704 13.594 82.8832 13.594L82.8832 13.594ZM22.8942 10.7388L22.8604 10.7388C22.7395 11.2441 22.5523 11.9898 22.2889 12.9791L21.2923 16.0844L24.5124 16.0844L23.5021 12.9791C23.3929 12.6601 23.1894 11.9125 22.8942 10.7388L22.8942 10.7388ZM42.7542 13.8054C42.2777 13.8054 41.8525 13.9601 41.465 14.272C41.0795 14.5878 40.8266 14.9964 40.7069 15.5024C40.6478 15.7389 40.6198 15.9316 40.6198 16.085L40.6198 17.5126C40.6198 18.1371 40.8097 18.6643 41.1971 19.0936C41.582 19.5189 42.0839 19.7349 42.6983 19.7349C43.4258 19.7349 43.9882 19.4603 44.392 18.906C44.7963 18.3537 44.9992 17.6247 44.9992 16.716C44.9992 15.8833 44.808 15.1943 44.4297 14.6548C44.011 14.0928 43.4531 13.8054 42.7542 13.8054L42.7542 13.8054ZM68.3069 13.6868C67.5384 13.6868 66.9501 14.0258 66.5489 14.7064C66.2011 15.2671 66.0308 15.9516 66.0308 16.7617C66.0308 17.55 66.2011 18.2228 66.5489 18.7848C66.9605 19.4648 67.5417 19.8038 68.2933 19.8038C69.024 19.8038 69.6014 19.4603 70.0142 18.7636C70.3731 18.1945 70.5512 17.5126 70.5512 16.7282C70.5512 15.9439 70.3802 15.2671 70.0376 14.7064C69.6287 14.0258 69.0559 13.6868 68.3069 13.6868L68.3069 13.6868ZM33.2491 13.8054C32.7758 13.8054 32.348 13.9601 31.9612 14.272C31.5743 14.5878 31.3234 14.9964 31.2044 15.5024C31.1459 15.7389 31.1166 15.9316 31.1166 16.085L31.1166 17.5126C31.1166 18.1371 31.3058 18.6643 31.694 19.0936C32.0788 19.5189 32.5808 19.7349 33.1964 19.7349C33.9188 19.7349 34.4863 19.4603 34.8888 18.906C35.2919 18.3537 35.4921 17.6247 35.4921 16.716C35.4921 15.8833 35.3042 15.1943 34.9245 14.6548C34.5071 14.0928 33.95 13.8054 33.2491 13.8054L33.2491 13.8054ZM1.19822 18.6186L11.1949 18.6186L11.1949 3.96179L1.19822 3.96179L1.19822 18.6186ZM6.19524 19.4835C5.63481 19.4835 5.17776 19.9385 5.17776 20.496C5.17776 21.0522 5.63481 21.5053 6.19524 21.5053C6.75827 21.5053 7.21402 21.0522 7.21402 20.496C7.21402 19.9385 6.75827 19.4835 6.19524 19.4835L6.19524 19.4835ZM5.21612 2.46653L7.17501 2.46653C7.30309 2.46653 7.40776 2.36212 7.40776 2.24031C7.40776 2.11141 7.30309 2.00764 7.17501 2.00764L5.21612 2.00764C5.09194 2.00764 4.98532 2.11141 4.98532 2.24031C4.98532 2.36212 5.09194 2.46653 5.21612 2.46653L5.21612 2.46653Z" transform="translate(9.064722 7.634721)" id="Fill-1" fill="#FFFFFF" fill-rule="evenodd" stroke="none" />
    <g id="Group-5" transform="matrix(1 0 0 1 1.5570333E-13 -1.3738529E-14)">
      <path d="M0 0L104.751 0L104.751 36.9314L0 36.9314L0 0Z" transform="translate(0 0.4500604)" id="Clip-4" fill="none" fill-rule="evenodd" stroke="none" />
      <g clip-path="url(#mask_1)">
        <path d="M5.02173 1.28902C2.96987 1.28902 1.30029 2.94412 1.30029 4.97818L1.30029 31.9592C1.30029 33.9901 2.96987 35.6426 5.02173 35.6426L99.7291 35.6426C101.781 35.6426 103.451 33.9901 103.451 31.9592L103.451 4.97818C103.451 2.94412 101.781 1.28902 99.7291 1.28902L5.02173 1.28902ZM99.7291 36.9316L5.02173 36.9316C2.25276 36.9316 0 34.701 0 31.9593L0 4.97819C0 2.23322 2.25276 0 5.02173 0L99.7291 0C102.499 0 104.751 2.23322 104.751 4.97819L104.751 31.9593C104.751 34.701 102.499 36.9316 99.7291 36.9316L99.7291 36.9316Z" transform="translate(-0.0002600583 0.4500604)" id="Fill-3" fill="#FFFFFF" fill-rule="evenodd" stroke="none" />
      </g>
    </g>
  </g>
</svg>