<svg width="137px" height="38px" viewBox="0 0 137 38" version="1.1" xmlns="http://www.w3.org/2000/svg" xmlns:xlink="http://www.w3.org/1999/xlink">
    <title>5564E818-1047-4E52-9F65-9EBA450F8A30</title>
    <defs>
        <polygon id="path-1" points="5.60218376e-17 0 28.8117716 0 28.8117716 37.4227519 5.60218376e-17 37.4227519"></polygon>
        <polygon id="path-3" points="0 37.4228316 136.43 37.4228316 136.43 0 0 0"></polygon>
    </defs>
    <g id="web" stroke="none" stroke-width="1" fill="none" fill-rule="evenodd">
        <g id="Homepage-RD" transform="translate(-24.000000, -4933.000000)">
            <g id="Footer" transform="translate(0.000000, 4895.055546)">
                <g id="Logo-Blue" transform="translate(24.000000, 37.944454)">
                    <g id="Group-3" transform="translate(0.000098, 0.000080)">
                        <mask id="mask-2" fill="white">
                            <use xlink:href="#path-1"></use>
                        </mask>
                        <g id="Clip-2"></g>
                        <path d="M16.7036569,19.9356731 C16.7384124,19.9446012 16.7744434,19.9506595 16.8122282,19.9506595 C17.0247474,19.9506595 17.3048646,19.7980857 17.6423764,19.4602551 L24.3980321,12.7168754 C25.1060575,12.0112415 25.3244755,10.9409928 24.9418453,10.0529718 C23.2740558,6.19031954 20.4327074,3.94635262 16.7036569,3.53534397 L16.7036569,19.9356731 Z M11.3461958,4.0644897 C11.1005153,4.0644897 10.8565885,4.11231848 10.6230247,4.20510632 C9.53077475,4.64146422 8.54247273,5.27694927 7.68968559,6.09306768 C4.90700718,8.75840615 3.44408424,13.1219852 3.4545502,18.7083866 C3.44408424,24.300687 4.90700718,28.6657009 7.68968559,31.3311988 C9.19629215,32.7751496 11.0644843,33.6287339 13.2491435,33.8739361 L13.2491435,5.93459499 C13.2491435,4.90308764 12.3949215,4.0644897 11.3461958,4.0644897 L11.3461958,4.0644897 Z M14.4227023,37.4212373 C10.9213168,37.4212373 7.76350134,36.1686015 5.28963742,33.7991638 C1.81535486,30.4701213 -0.0150525444,25.2515231 5.60218376e-17,18.7083866 C-0.0150525444,12.1727433 1.81535486,6.95558001 5.28963742,3.62494322 C7.76509563,1.2556649 10.9469849,0.00143486339 14.4904598,0.00143486339 L15.0403313,0.0119571949 L15.5889274,0 C21.0171751,0 25.5220084,3.03298235 27.9474058,8.32188882 C28.1267638,8.71360653 28.3663859,9.38783289 28.5938915,10.0724222 C29.1029492,11.6152192 28.7053326,13.2849219 27.5544127,14.4315371 L18.1200265,23.8463136 C17.206975,24.7550604 16.7036569,25.9644908 16.7036569,27.2486936 L16.7036569,31.4955703 C16.7036569,32.0052657 16.9056537,32.4821186 17.2731382,32.8409939 C17.6272306,33.1863177 18.1048807,33.3836911 18.5839656,33.3836911 C18.8068477,33.3836911 19.0298893,33.3417612 19.2440028,33.2594957 C20.3692545,32.8229784 21.3846595,32.1742607 22.2615205,31.3340685 C22.9229925,30.6987429 23.5331283,29.8901176 24.1282778,28.8616394 C24.3120997,28.5446941 24.6512058,28.3489149 25.0142262,28.3489149 L25.1315661,28.3489149 L25.4435692,28.4445725 L26.7075244,29.0363739 C26.9651621,29.1575402 27.1611007,29.3818571 27.2470331,29.6493794 C27.3313711,29.9154669 27.3026739,30.2069036 27.1655647,30.4490766 C26.3806944,31.842329 25.5610686,32.9380863 24.663163,33.7991638 C22.1907339,36.1700364 19.0118738,37.4228316 15.4728629,37.4228316 L14.4227023,37.4212373 Z" id="Fill-1" fill="#107CC0" mask="url(#mask-2)"></path>
                    </g>
                    <path d="M47.4880794,21.8317813 C47.4880794,23.688654 47.840737,24.0647476 48.8747952,24.0647476 L52.8941664,24.0647476 L52.8941664,25.8980248 L47.840737,25.8980248 C45.2080815,25.8980248 44.2210549,24.4878729 44.2210549,21.8317813 L44.2210549,13.6286673 C44.2210549,10.8314808 45.231677,9.42132898 47.840737,9.42132898 L52.8471348,9.42132898 L52.8471348,11.3016377 L48.8747952,11.3016377 C47.7937053,11.3016377 47.4880794,11.6542953 47.4880794,13.6286673 L47.4880794,21.8317813 Z" id="Fill-4" fill="#107CC0"></path>
                    <path d="M57.6422091,22.0432802 C57.6422091,23.8767167 57.8773673,24.0646839 59.264083,24.0646839 L60.2278329,24.0646839 C61.6379848,24.0646839 61.8731429,23.8767167 61.8731429,22.0432802 L61.8731429,16.7312565 C61.8731429,14.8743838 61.6379848,14.7332889 60.2278329,14.7332889 L59.264083,14.7332889 C57.8773673,14.7332889 57.6422091,14.8743838 57.6422091,16.7312565 L57.6422091,22.0432802 Z M61.3793905,12.8529802 C64.3176719,12.8529802 65.0698592,13.9342294 65.0698592,16.8487558 L65.0698592,21.9023447 C65.0698592,24.8168711 64.3176719,25.8981204 61.3793905,25.8981204 L58.0889299,25.8981204 C55.1744035,25.8981204 54.4456523,24.8168711 54.4456523,21.9023447 L54.4456523,16.8487558 C54.4456523,13.9342294 55.1744035,12.8529802 58.0889299,12.8529802 L61.3793905,12.8529802 Z" id="Fill-6" fill="#107CC0"></path>
                    <path d="M72.6148492,14.7333527 L70.4289145,14.7333527 L70.4289145,25.8980248 L67.2321983,25.8980248 L67.2321983,12.3122599 C67.2321983,9.79742262 68.1018849,8.95117208 70.5229778,8.95117208 L72.6148492,8.95117208 L72.6148492,10.737577 L71.1340701,10.737577 C70.6404771,10.737577 70.4289145,10.902108 70.4289145,11.5132004 L70.4289145,12.8530439 L72.6148492,12.8530439 L72.6148492,14.7333527 Z" id="Fill-8" fill="#107CC0"></path>
                    <path d="M77.6916828,20.6330167 L77.6916828,18.8466118 L78.8669954,18.8466118 C80.2537111,18.8466118 80.4651143,18.6116131 80.4651143,17.5303638 L80.4651143,16.143648 C80.4651143,14.8742722 80.2537111,14.7333367 78.8669954,14.7333367 L78.3968385,14.7333367 C76.9865272,14.7333367 76.7515284,14.8742722 76.7515284,16.7311449 L76.7515284,22.043328 C76.7515284,23.8766051 76.9865272,24.0647317 78.3968385,24.0647317 L82.6982401,24.0647317 L82.6982401,25.8980088 L77.2451214,25.8980088 C74.3071589,25.8980088 73.5549717,24.816919 73.5549717,21.9022331 L73.5549717,16.8488037 C73.5549717,13.9341178 74.3071589,12.853028 77.2451214,12.853028 L80.0187124,12.853028 C82.9566749,12.853028 83.6854261,13.9341178 83.6854261,15.9320854 L83.6854261,17.5539593 C83.6854261,19.5517675 82.9566749,20.6330167 80.0187124,20.6330167 L77.6916828,20.6330167 Z" id="Fill-10" fill="#107CC0"></path>
                    <path d="M91.6770891,19.3872524 L90.0552151,19.3872524 L90.0552151,17.5538158 L91.2775593,17.5538158 C92.2411498,17.5538158 92.4997441,17.0133506 92.4997441,14.4042907 C92.4997441,11.8422624 92.2411498,11.3016377 91.2775593,11.3016377 L88.7859987,11.3016377 L88.7859987,25.8980248 L85.4717832,25.8980248 L85.4717832,9.42132898 L91.6770891,9.42132898 C94.9678685,9.42132898 95.7434919,10.3378878 95.7434919,14.4981945 C95.7434919,18.6586606 94.9678685,19.3872524 91.6770891,19.3872524" id="Fill-12" fill="#107CC0"></path>
                    <path d="M101.196435,20.6330167 L101.196435,18.8466118 L102.371748,18.8466118 C103.758463,18.8466118 103.970026,18.6116131 103.970026,17.5303638 L103.970026,16.143648 C103.970026,14.8742722 103.758463,14.7333367 102.371748,14.7333367 L101.901591,14.7333367 C100.49128,14.7333367 100.256281,14.8742722 100.256281,16.7311449 L100.256281,22.043328 C100.256281,23.8766051 100.49128,24.0647317 101.901591,24.0647317 L106.202992,24.0647317 L106.202992,25.8980088 L100.749874,25.8980088 C97.8119113,25.8980088 97.059724,24.816919 97.059724,21.9022331 L97.059724,16.8488037 C97.059724,13.9341178 97.8119113,12.853028 100.749874,12.853028 L103.523465,12.853028 C106.461427,12.853028 107.190178,13.9341178 107.190178,15.9320854 L107.190178,17.5539593 C107.190178,19.5517675 106.461427,20.6330167 103.523465,20.6330167 L101.196435,20.6330167 Z" id="Fill-14" fill="#107CC0"></path>
                    <path d="M113.606856,14.7333527 C112.22014,14.7333527 111.984982,14.8742882 111.984982,16.7311608 L111.984982,22.4192782 C111.984982,23.853185 112.22014,24.0647476 113.606856,24.0647476 L115.816226,24.0647476 L115.816226,8.95117208 L119.036538,8.95117208 L119.036538,25.8980248 L112.431702,25.8980248 C109.587644,25.8980248 108.788425,24.9108387 108.788425,21.9022491 L108.788425,16.8488196 C108.788425,13.9341338 109.517176,12.8530439 112.431702,12.8530439 L114.7117,12.8530439 L114.7117,14.7333527 L113.606856,14.7333527 Z" id="Fill-16" fill="#107CC0"></path>
                    <mask id="mask-4" fill="white">
                        <use xlink:href="#path-3"></use>
                    </mask>
                    <g id="Clip-19"></g>
                    <path d="M121.434083,25.8980088 L124.630799,25.8980088 L124.630799,12.8528686 L121.434083,12.8528686 L121.434083,25.8980088 Z M121.434083,11.1841224 L124.630799,11.1841224 L124.630799,8.92772003 L121.434083,8.92772003 L121.434083,11.1841224 Z" id="Fill-18" fill="#107CC0" mask="url(#mask-4)"></path>
                    <path d="M132.269582,17.9064574 L132.269582,19.6928624 L131.470522,19.6928624 C130.060211,19.6928624 129.825212,19.9514566 129.825212,21.0325465 L129.825212,22.6544204 C129.825212,23.8766051 130.060211,24.0647317 131.470522,24.0647317 L133.209736,24.0647317 L133.209736,16.7311449 C133.209736,14.8742722 132.998333,14.7333367 131.564426,14.7333367 L128.367869,14.7333367 L128.367869,12.853028 L132.739739,12.853028 C135.654265,12.853028 136.430048,13.9341178 136.430048,16.8488037 L136.430048,25.8980088 L130.318805,25.8980088 C127.380683,25.8980088 126.628496,24.816919 126.628496,22.8189514 L126.628496,20.9855148 C126.628496,18.9877067 127.380683,17.9064574 130.318805,17.9064574 L132.269582,17.9064574 Z" id="Fill-20" fill="#107CC0" mask="url(#mask-4)"></path>
                </g>
            </g>
        </g>
    </g>
</svg>