<?xml version="1.0" encoding="utf-8"?>
<svg width="18px" height="15px" viewBox="0 0 18 15" version="1.1" xmlns:xlink="http://www.w3.org/1999/xlink" xmlns="http://www.w3.org/2000/svg">
  <path d="M17.6516 1.74095C17.1588 2.47398 16.5427 3.12684 15.8371 3.65371C15.8483 3.81406 15.8483 3.97441 15.8483 4.13476C15.8483 9.02546 12.2083 14.6607 5.55532 14.6607C3.50567 14.6607 1.60163 14.0536 0 12.9999C0.291206 13.0342 0.571212 13.0457 0.873618 13.0457C2.56485 13.0457 4.12169 12.4616 5.36491 11.4651C3.77448 11.4307 2.44165 10.3655 1.98244 8.89947C2.20645 8.93383 2.43045 8.95674 2.66566 8.95674C2.99046 8.95674 3.31527 8.91093 3.61768 8.83075C1.96004 8.48714 0.716815 6.99817 0.716815 5.19995C0.716815 5.1885 0.716815 5.16559 0.716815 5.15414C1.19843 5.42902 1.75844 5.60083 2.35205 5.62373C1.37763 4.95942 0.739215 3.82551 0.739215 2.54271C0.739215 1.85549 0.918419 1.22554 1.23203 0.675764C3.01286 2.92068 5.68972 4.38674 8.69138 4.54709C8.63538 4.27221 8.60178 3.98586 8.60178 3.69952C8.60178 1.66078 10.2146 0 12.2195 0C13.2611 0 14.2019 0.446692 14.8627 1.16827C15.6803 1.00792 16.4643 0.698672 17.1588 0.274887C16.89 1.13391 16.3187 1.85549 15.5683 2.31363C16.2963 2.23346 17.002 2.02729 17.6516 1.74095Z" id="twitter---FontAwesome" fill="#107CC0" fill-rule="evenodd" stroke="none" />
</svg>