<svg width="79" height="90" viewBox="0 0 79 90" xmlns="http://www.w3.org/2000/svg">
    <path d="M37 27.948c.123.03.252.052.387.052.756 0 1.753-.53 2.956-1.703L64.399 2.882c2.522-2.45 3.3-6.167 1.938-9.25C60.397-19.782 50.279-27.573 37-29v56.948zM18.2-26a7.14 7.14 0 0 0-2.584.49 32.68 32.68 0 0 0-10.482 6.587C-4.81-9.623-10.036 5.601-10 25.09c-.036 19.51 5.19 34.739 15.134 44.04C10.518 74.165 17.194 77.143 25 78v-97.476C25-23.074 21.947-26 18.2-26zM28.56 89.996c-12.275 0-23.344-4.386-32.016-12.68C-15.636 65.662-22.052 47.394-22 24.49c-.052-22.877 6.364-41.14 18.544-52.799 8.678-8.295 19.832-12.685 32.253-12.685l1.928.037L32.647-41c19.03 0 34.82 10.619 43.323 29.133.63 1.37 1.469 3.73 2.266 6.127 1.785 5.401.392 11.245-3.643 15.26L41.52 42.475c-3.2 3.182-4.964 7.414-4.964 11.91v14.866c0 1.784.707 3.454 1.996 4.71 1.241 1.208 2.915 1.899 4.594 1.899a6.46 6.46 0 0 0 2.314-.434 31.919 31.919 0 0 0 10.579-6.74c2.318-2.225 4.458-5.055 6.543-8.655a3.602 3.602 0 0 1 3.107-1.795h.412l1.092.334 4.432 2.073a3.602 3.602 0 0 1 1.89 2.145 3.532 3.532 0 0 1-.285 2.8c-2.751 4.876-5.625 8.713-8.773 11.727C55.79 85.616 44.647 90 32.24 90l-3.68-.004z" fill="#3D65AE" fill-rule="evenodd"/>
</svg>
