<?xml version="1.0" encoding="utf-8"?>
<svg width="26px" height="20px" viewBox="0 0 26 20" version="1.1" xmlns:xlink="http://www.w3.org/1999/xlink" xmlns="http://www.w3.org/2000/svg">
  <path d="M11.5992 0.316875C12.0228 0.739375 12.0228 1.43271 11.5992 1.85521L8.03183 5.41937L17.9682 5.41937L14.4008 1.85521C13.9772 1.43271 13.9772 0.739375 14.4008 0.316875C14.8243 -0.105625 15.509 -0.105625 15.9326 0.316875L21.0318 5.41937L24.9167 5.41937C25.5147 5.41937 26 5.90688 26 6.50271C26 7.09854 25.5147 7.58604 24.9167 7.58604L24.7368 7.58604L23.0555 16.8377C22.7749 18.376 21.4294 19.5027 19.8586 19.5027L6.14142 19.5027C4.57058 19.5027 3.22508 18.376 2.9445 16.8377L1.26317 7.58604L1.08333 7.58604C0.485333 7.58604 0 7.09854 0 6.50271C0 5.90688 0.485333 5.41937 1.08333 5.41937L4.96817 5.41937L10.0674 0.316875C10.491 -0.105625 11.1757 -0.105625 11.5992 0.316875ZM3.4645 7.58604L5.07542 16.4477C5.16858 16.9569 5.61817 17.336 6.14142 17.336L19.8586 17.336C20.3818 17.336 20.8303 16.9569 20.9235 16.4477L22.5355 7.58604L3.4645 7.58604ZM7.94625 9.76354C8.53667 9.66604 9.09567 10.0669 9.19317 10.6627L9.73483 13.9127C9.83342 14.4977 9.43475 15.061 8.84542 15.1585C8.255 15.256 7.696 14.8552 7.5985 14.2594L7.05683 11.0094C6.95825 10.4244 7.35692 9.86104 7.94625 9.76354ZM18.0537 9.76354C18.6431 9.86104 19.0417 10.4244 18.9432 11.0094L18.4015 14.2594C18.304 14.8552 17.745 15.256 17.1546 15.1585C16.5653 15.061 16.1666 14.4977 16.2652 13.9127L16.8068 10.6627C16.9043 10.0669 17.4633 9.66604 18.0537 9.76354ZM13 9.75271C13.598 9.75271 14.0833 10.2402 14.0833 10.836L14.0833 14.086C14.0833 14.6819 13.598 15.1694 13 15.1694C12.402 15.1694 11.9167 14.6819 11.9167 14.086L11.9167 10.836C11.9167 10.2402 12.402 9.75271 13 9.75271L13 9.75271Z" id="Shopping-Basket" fill="#FFFFFF" fill-rule="evenodd" stroke="none" />
</svg>