<?xml version="1.0" encoding="utf-8"?>
<svg width="17px" height="17px" viewBox="0 0 17 17" version="1.1" xmlns:xlink="http://www.w3.org/1999/xlink" xmlns="http://www.w3.org/2000/svg">
  <path d="M8.324 16.648C9.84473 16.648 11.2521 16.2678 12.546 15.5075C13.8 14.7871 14.7871 13.8 15.5075 12.546C16.2678 11.2521 16.648 9.84473 16.648 8.324C16.648 6.80327 16.2678 5.39593 15.5075 4.10197C14.7871 2.84804 13.8 1.86089 12.546 1.14055C11.2521 0.380183 9.84473 0 8.324 0C6.81661 0 5.41594 0.380183 4.12198 1.14055C2.86805 1.87423 1.87423 2.86805 1.14055 4.12198C0.380183 5.41594 0 6.81661 0 8.324C0 9.83139 0.380183 11.2321 1.14055 12.526C1.86089 13.78 2.84804 14.7738 4.10197 15.5075C5.39593 16.2678 6.80327 16.648 8.324 16.648ZM8.324 15.0072C7.12342 15.0072 6.00288 14.7004 4.96238 14.0868C3.94856 13.4998 3.14818 12.6994 2.56123 11.6856C1.9476 10.6451 1.64079 9.52458 1.64079 8.324C1.64079 7.12342 1.9476 6.00288 2.56123 4.96238C3.14818 3.94856 3.94856 3.14818 4.96238 2.56123C6.00288 1.9476 7.12342 1.64079 8.324 1.64079C9.52458 1.64079 10.6451 1.9476 11.6856 2.56123C12.6994 3.14818 13.4998 3.94856 14.0868 4.96238C14.7004 6.00288 15.0072 7.12342 15.0072 8.324C15.0072 9.52458 14.7004 10.6451 14.0868 11.6856C13.4998 12.6994 12.6994 13.4998 11.6856 14.0868C10.6451 14.7004 9.52458 15.0072 8.324 15.0072ZM6.64319 12.0658L11.6456 8.324L6.64319 4.56219L6.64319 12.0658Z" id="" fill="#FFFFFF" stroke="none" />
</svg>