<?xml version="1.0" encoding="utf-8"?>
<!-- Generator: Adobe Illustrator 24.3.0, SVG Export Plug-In . SVG Version: 6.00 Build 0)  -->
<svg version="1.1" id="Layer_1" xmlns="http://www.w3.org/2000/svg" xmlns:xlink="http://www.w3.org/1999/xlink" x="0px" y="0px"
	 viewBox="0 0 223.7 317.2" style="enable-background:new 0 0 223.7 317.2;" xml:space="preserve">
<style type="text/css">
	.st0{fill:#231F20;}
</style>
<path id="_xE9F7_" class="st0" d="M112.2,313.9l11.2-13.1c9.5-11.2,18.5-22.7,27-34.4c12.2-16.7,23.1-32.8,32.6-48.3
	c11.5-19.5,20.5-37.6,27-54.3c7.5-19.7,11.2-37.2,11.2-52.4c0-20-4.9-38.3-14.6-55c-9.7-16.5-22.8-29.6-39.3-39.3
	c-16.7-9.7-35.1-14.6-55-14.6S73.9,7.3,57.2,17c-16.5,9.7-29.6,22.8-39.3,39.3C8.1,73,3.2,91.4,3.2,111.4c0,15.2,3.7,32.7,11.2,52.4
	c6.5,16.7,15.5,34.8,27,54.3c9.5,15.5,20.3,31.6,32.6,48.3c8.5,11.7,17.5,23.2,27,34.4l0,0L112.2,313.9z M112.2,149.9
	c-10.7,0-19.8-3.7-27.3-11.2c-7.5-7.5-11.2-16.6-11.2-27.3c0-7,1.7-13.5,5.2-19.5c3.5-6,8.2-10.7,14-14.2c5.9-3.5,12.3-5.2,19.3-5.2
	c7,0,13.5,1.7,19.5,5.2c6,3.5,10.7,8.2,14.2,14.2c3.5,6,5.2,12.5,5.2,19.5c0,7-1.7,13.4-5.2,19.3c-3.5,5.9-8.2,10.5-14.2,14
	C125.7,148.2,119.2,149.9,112.2,149.9z"/>
</svg>
