<?xml version="1.0" encoding="utf-8"?>
<svg width="163px" height="163px" viewBox="0 0 163 163" version="1.1" xmlns:xlink="http://www.w3.org/1999/xlink" xmlns="http://www.w3.org/2000/svg">
  <defs>
    <path d="M0 163L49.7911 163L163 163L163 0L0 0L0 163Z" id="path_1" />
    <clipPath id="mask_1">
      <use xlink:href="#path_1" />
    </clipPath>
  </defs>
  <g id="Logo">
    <path d="M0 163L49.7911 163L163 163L163 0L0 0L0 163Z" id="Clip-28" fill="none" fill-rule="evenodd" stroke="none" />
    <g clip-path="url(#mask_1)">
      <path d="M91.4843 86.8322C91.6357 86.8711 91.7926 86.8975 91.9572 86.8975C92.8821 86.8975 94.1029 86.2329 95.573 84.7615L124.997 55.3898C128.081 52.3163 129.033 47.6547 127.367 43.7868C120.103 26.9625 107.726 17.1886 91.4843 15.3984L91.4843 86.8322ZM68.1491 17.7031C67.079 17.7031 66.0159 17.9114 64.9986 18.3156C60.2418 20.2162 55.9372 22.9841 52.2227 26.5389C40.1024 38.1481 33.7305 57.1542 33.7756 81.4865C33.7305 105.844 40.1024 124.857 52.2227 136.467C58.785 142.756 66.9221 146.474 76.437 147.542L76.437 25.8486C76.437 21.3557 72.7163 17.7031 68.1491 17.7031L68.1491 17.7031ZM81.5486 162.993C66.2978 162.993 52.5443 157.537 41.769 147.216C26.6363 132.716 18.6638 109.985 18.729 81.4866C18.6638 53.0197 26.6363 30.2957 41.769 15.7887C52.5512 5.46897 66.4103 0.00600559 81.8444 0.00600559L84.2394 0.051837L86.6282 -0.000244141C110.272 -0.000244141 129.893 13.2103 140.458 36.2468C141.238 37.953 142.282 40.8897 143.273 43.8715C145.491 50.5914 143.758 57.864 138.745 62.8582L97.6528 103.865C93.6758 107.824 91.4843 113.091 91.4843 118.685L91.4843 137.183C91.4843 139.403 92.3641 141.48 93.9647 143.043C95.507 144.547 97.5868 145.407 99.6742 145.407C100.645 145.407 101.616 145.224 102.548 144.866C107.45 142.964 111.873 140.139 115.692 136.479C118.573 133.712 121.231 130.19 123.822 125.71C124.624 124.33 126.1 123.477 127.681 123.477L128.193 123.477L129.551 123.894L135.057 126.471C136.18 126.999 137.033 127.976 137.407 129.141C137.774 130.3 137.649 131.57 137.052 132.625C133.633 138.693 130.064 143.466 126.153 147.216C115.384 157.543 101.538 163 86.1227 163L81.5486 162.993Z" id="Fill-1" fill="#FFD008" fill-rule="evenodd" stroke="none" />
    </g>
  </g>
</svg>