<?xml version="1.0" encoding="utf-8"?>
<!-- Generator: Adobe Illustrator 24.3.0, SVG Export Plug-In . SVG Version: 6.00 Build 0)  -->
<svg version="1.1" id="Layer_1" xmlns="http://www.w3.org/2000/svg" xmlns:xlink="http://www.w3.org/1999/xlink" x="0px" y="0px"
	 viewBox="0 0 25.2 24.8" style="enable-background:new 0 0 25.2 24.8;" xml:space="preserve">
<style type="text/css">
	.st0{fill:#020203;}
</style>
<path id="Shape" class="st0" d="M23.5,7c0.5,0,0.9-0.4,0.9-0.9v-1c0-2.6-2.1-4.7-4.7-4.7c0,0-14.7,0-14.7,0C3.9,0.4,2.7,1,1.8,1.9
	C0.9,2.8,0.5,4,0.5,5.2c0,0,0,13.5,0,13.5c0,3.1,2.5,5.6,5.6,5.6h13.7c2.6,0,4.7-2.1,4.7-4.7v-7.1c0-2.6-2.1-4.7-4.7-4.7H5.2
	c-1.5,0-2.7-1.2-2.8-2.7c0-0.8,0.2-1.5,0.8-2c0.5-0.6,1.3-0.9,2.1-0.9c0,0,14.5,0,14.5,0c1.5,0,2.8,1.3,2.8,2.8v1
	C22.6,6.6,23,7,23.5,7z M5.2,9.8h14.6c1.5,0,2.8,1.3,2.8,2.8v7.1c0,1.5-1.3,2.8-2.8,2.8H6.1c-2.1,0-3.7-1.7-3.7-3.7V8.8
	C3.2,9.4,4.2,9.8,5.2,9.8z M20.7,16.1c0,0.6-0.5,1.2-1.2,1.2c-1.6-0.1-1.6-2.3,0-2.3C20.2,14.9,20.7,15.5,20.7,16.1z M20.7,5.1
	c0-0.5-0.4-0.9-0.9-0.9H5.2C4,4.2,4,6,5.2,6h14.6C20.3,6,20.7,5.6,20.7,5.1z"/>
</svg>
